<?xml version="1.0" standalone="no"?>
<!DOCTYPE svg PUBLIC "-//W3C//DTD SVG 1.1//EN" "http://www.w3.org/Graphics/SVG/1.1/DTD/svg11.dtd" >
<svg xmlns="http://www.w3.org/2000/svg" xmlns:xlink="http://www.w3.org/1999/xlink" version="1.1">
<metadata>
Created by FontForge 20200427 at Tue Jul 29 09:56:01 2008
 By www
</metadata>
<defs>
<font id="LifeCraft" horiz-adv-x="437" >
  <font-face 
    font-family="LifeCraft"
    font-weight="400"
    font-stretch="normal"
    units-per-em="1000"
    panose-1="0 0 0 0 0 0 0 0 0 0"
    ascent="750"
    descent="-250"
    x-height="551"
    cap-height="700"
    bbox="-116 -259.174 832 792"
    underline-thickness="50"
    underline-position="-100"
    unicode-range="U+0020-2122"
  />
<missing-glyph horiz-adv-x="203" 
 />
    <glyph glyph-name=".notdef" horiz-adv-x="203" 
 />
    <glyph glyph-name=".null" horiz-adv-x="0" 
 />
    <glyph glyph-name="nonmarkingreturn" horiz-adv-x="203" 
 />
    <glyph glyph-name="space" unicode=" " horiz-adv-x="203" 
 />
    <glyph glyph-name="space" unicode="&#xa0;" horiz-adv-x="203" 
 />
    <glyph glyph-name="a" unicode="a" horiz-adv-x="440" 
d="M191 0h-30.5t-63.5 1l-92 2q9 7 20 22.5t13 35.5q1 6 4.5 25t8.5 46.5t11.5 60.5t12.5 67q15 79 34 176l-32 44l204 121q-3 -15 -5 -30q-2 -14 -1.5 -29.5t4.5 -29.5q5 -15 14 -50t20 -72q11 -43 26 -93l75 22l14 -64l-68 -29q10 -50 22 -94q10 -38 23 -75.5t27 -56.5
h-184q8 9 15 20q6 9 11 19.5t5 21.5t-3 32l-6 42q-4 25 -9 53q-37 -13 -65 -32q-24 -17 -42.5 -41.5t-13.5 -58.5q25 -32 38.5 -44t12.5 -12zM169 219l75 50l-43 124z" />
    <glyph glyph-name="c" unicode="c" horiz-adv-x="310" 
d="M257 177l36 -122l-130 -117l-144 157v364l137 148l149 -155l-84 -56l-44 63l-29 -39v-298l28 -34z" />
    <glyph glyph-name="r" unicode="r" horiz-adv-x="427" 
d="M30 -2q0 -1 7 7t15.5 22t16 32t7.5 38v320l-76 52l218 135l206 -225l-133 -115l80 -48q-2 -8 -3 -19q-1 -9 -1.5 -21t-0.5 -26q0 -19 2 -40.5t7.5 -41.5t15.5 -38t26 -30h-121q-13 11 -24 23q-9 11 -16 24.5t-7 28.5q0 14 -0.5 28.5t-1.5 26.5q-1 14 -1 27l-62 50
q0 -29 1 -55q0 -23 0.5 -46t0.5 -37q0 -15 5.5 -28t13.5 -22q8 -11 19 -20h-96h-35.5t-31 -0.5t-22.5 -1zM244 385l-60 64v-129z" />
    <glyph glyph-name="C" unicode="C" horiz-adv-x="340" 
d="M297 145l42 -140l-147 -132l-165 178v533l157 169l168 -176l-95 -64l-50 71l-33 -44v-457l30 -39z" />
    <glyph glyph-name="F" unicode="F" horiz-adv-x="405" 
d="M0 0q21 15 39 33q14 14 26.5 32t12.5 35q0 8 -0.5 34t-1 62.5t-1 80t-0.5 88.5q-2 105 -3 232q-20 29 -38.5 52.5t-36.5 50.5h400l1 -218l-41 115h-142v-164h128v-128l-26 26h-102v-230q0 -26 19 -52.5t45 -48.5h-279z" />
    <glyph glyph-name="f" unicode="f" horiz-adv-x="335" 
d="M12 0q9 11 17 23q7 11 12.5 24.5t5.5 27.5q0 7 -0.5 26t-1 44.5t-1 56t-0.5 60.5q-2 71 -3 157q-22 8 -39 15q-15 6 -27 10.5t-12 6.5l11 7.5t28.5 19.5t40 27.5t46.5 31.5q55 37 127 85l121 -163l-57 -42l-62 67l-48 -38v-122h112v-113l-22 24h-90v-160q0 -14 8.5 -27.5
t19.5 -24.5q12 -12 28 -23h-214z" />
    <glyph glyph-name="T" unicode="T" horiz-adv-x="417" 
d="M59 0q18 17 32 36q12 17 22 37.5t10 41.5v441h-10q-9 0 -24.5 -1.5t-32 -7.5t-31.5 -18t-25 -33v120q0 40 1 86q6 -1 52 -1h361v-205q-8 14 -24 25.5t-34 19t-36 11.5t-30 4h-15v-416q0 -33 12 -59t27 -44q18 -21 40 -37h-295z" />
    <glyph glyph-name="t" unicode="t" horiz-adv-x="368" 
d="M58 0q0 -2 9 6.5t19.5 22.5t19 32t8.5 35v361q-11 0 -26 -1.5t-30 -6.5t-28 -14.5t-20 -26.5v168h342v-156q-11 23 -41 30t-75 7v-344q0 -26 10 -47.5t23 -35.5q14 -18 33 -30h-244z" />
    <glyph glyph-name="w" unicode="w" horiz-adv-x="597" 
d="M169 553q-5 -4 -9 -8q-3 -4 -5.5 -10t-2.5 -14q1 -6 4 -23t7 -40.5t9.5 -51t10.5 -55.5q12 -66 28 -145l86 337l89 -328q10 71 20 133l8 52t8 49t6.5 40.5t4.5 25.5q0 11 -3.5 18t-8.5 12t-11 8h188q-6 -5 -12 -13q-6 -7 -13.5 -16.5t-15.5 -22.5q-5 -8 -13.5 -42.5
t-18 -82t-19.5 -101.5t-17.5 -101t-12.5 -81.5t-5 -41.5q0 -12 4 -21t9 -16q6 -8 14 -14h-183q6 3 10 7t7 10.5t3 15.5q0 8 -5.5 36t-11.5 58q-7 35 -16 78q-5 -14 -10.5 -37t-10 -48.5t-8 -49.5t-3.5 -39q0 -9 2 -14.5t5 -9.5q4 -4 8 -7h-182q9 7 17 15q7 7 12.5 15.5
t5.5 19.5q0 6 -7.5 38.5t-18.5 79.5t-24.5 100.5t-26 101.5t-21.5 83t-12 44q-4 14 -8.5 25t-9.5 18q-5 8 -12 13h171z" />
    <glyph glyph-name="m" unicode="m" horiz-adv-x="502" 
d="M60 433q0 1 -6.5 11t-14.5 21q-9 13 -20 29l139 94q11 -35 26.5 -74.5t31 -78t29 -73.5t22.5 -61q2 4 7.5 22t12.5 43t15 54.5t15.5 56t13.5 47t9 28.5h154q-10 -7 -17 -15q-7 -7 -12 -16t-5 -19v-447q3 -15 10.5 -26t15 -18t12.5 -10t4 -2h-80h-78q4 4 8 9q3 5 5.5 12
t2.5 18v308l-93 -339l-101 271v-102q0 -40 -0.5 -78t-0.5 -52q0 -12 3.5 -20.5t7.5 -14.5q4 -7 11 -12h-166q10 7 18 16q7 8 13 17t8 20v381z" />
    <glyph glyph-name="M" unicode="M" horiz-adv-x="643" 
d="M572 94q0 -19 10.5 -35.5t23.5 -29.5q15 -15 35 -29h-225q7 3 12 9q5 5 8.5 14t3.5 25q0 6 -0.5 26t-1 48.5t-1 63.5t-1.5 70q-2 83 -3 183l-106 -426l-112 415q0 -90 1 -167v-65.5t0.5 -60t0.5 -48.5v-30q0 -17 3 -28t8 -18q5 -8 12 -12h-226q15 12 27 26
q11 12 19.5 28.5t8.5 35.5v548q0 15 -5.5 26.5t-12.5 19.5q-8 10 -17 17h268q-7 -4 -11 -10q-4 -5 -7 -13.5t-3 -20.5q0 -5 1.5 -16.5t4 -27.5t6 -35t7.5 -38q9 -45 20 -99q10 51 19 94q8 37 14 72t7 49v5q0 11 -3 19t-6 13q-4 5 -9 8h276q-13 -8 -23 -18q-8 -8 -15 -19.5
t-7 -23.5z" />
    <glyph glyph-name="V" unicode="V" horiz-adv-x="514" 
d="M-2 701q1 -1 17.5 -1h40.5h104q28 0 56 1q-7 -5 -12 -11q-5 -5 -8.5 -13t-3.5 -19v-6q1 -6 4.5 -26.5t9 -49t12.5 -63t15 -69.5q17 -83 39 -183q0 3 4.5 29t10 65t12.5 84.5t13.5 87t11 73.5t6.5 43q1 5 1 13q0 13 -3.5 21.5t-8.5 13.5q-5 6 -12 10h205q-8 -7 -17 -17
q-8 -8 -17 -20t-20 -28q-5 -8 -12.5 -35t-16 -66.5t-18 -87.5t-18.5 -98t-17 -98t-14 -87.5t-9.5 -66.5t-3.5 -34q0 -15 5 -27t12 -20q8 -10 18 -16h-253q12 8 22 18q8 8 15.5 19t7.5 24q0 8 -9 50.5t-23.5 101.5t-31 127.5t-32 129t-26.5 105t-14 56.5q-5 18 -12.5 31.5
t-14.5 22.5t-11.5 13t-3.5 3z" />
    <glyph glyph-name="v" unicode="v" horiz-adv-x="388" 
d="M-2 551q1 -1 13.5 -1h31.5h81q22 0 44 1q-5 -4 -9 -9q-9 -11 -9 -26v-5q0 -5 3 -20.5t7.5 -38t10 -49.5t11.5 -54q13 -64 30 -144q1 2 4 22.5t7.5 51t10 66t10.5 68t9 57.5t5 34l1 10q0 11 -3 17.5t-7 11.5t-9 8h161q-7 -5 -14 -13q-6 -7 -14 -16.5t-15 -22.5
q-5 -9 -13 -43.5t-17.5 -82t-19.5 -101.5t-18 -100.5t-13 -80t-5 -40.5q0 -11 4.5 -20t9.5 -16q6 -8 15 -15h-198q9 7 17 15q7 7 12.5 15.5t5.5 18.5q0 6 -7.5 38.5t-18.5 79t-24.5 100t-25.5 101.5t-21.5 83t-12.5 44q-7 27 -19.5 42t-10.5 14z" />
    <glyph glyph-name="u" unicode="u" horiz-adv-x="401" 
d="M-5 483q13 7 33 16t42.5 20.5t46.5 24t45 25.5v-377l53 -81l54 81v244q0 5 -9 12.5t-20 15.5q-12 9 -28 19q27 15 55.5 30t51 27t37 20l14.5 8v-406q0 -19 -16.5 -50t-41 -61t-51.5 -51.5t-48 -21.5q-13 0 -30.5 10t-37 26t-38.5 36t-33.5 40t-24 37.5t-9.5 28.5v282
q-9 16 -20.5 26t-24.5 19z" />
    <glyph glyph-name="o" unicode="o" horiz-adv-x="389" 
d="M185 -56l-170 162v358l170 140l164 -140v-358zM242 143v274l-57 44l-57 -44v-274l57 -54z" />
    <glyph glyph-name="U" unicode="U" horiz-adv-x="524" 
d="M213 698q-8 -5 -13 -13q-5 -7 -9 -16.5t-4 -22.5v-458l72 -75l69 75v464q0 17 -4 27t-19 19h204q-16 -10 -27 -21q-11 -10 -19 -21.5t-8 -23.5v-485l-200 -225l-220 217v487q-4 17 -10.5 30.5t-13 23t-10.5 14t-3 4.5h215z" />
    <glyph glyph-name="n" unicode="n" horiz-adv-x="441" 
d="M277 0q-1 0 27 58v158l-139 130v-283q0 -15 4.5 -27t10.5 -20q6 -10 15 -16h-184l25 63v381l-65 41l22 76q55 -15 91 -28t67.5 -32.5t66 -51.5t86.5 -84v58q0 7 -7.5 15t-16.5 16q-11 9 -24 18l152 118q-1 -94 -1.5 -169t-1 -137t-0.5 -115.5v-105.5q0 -20 12 -38t21 -25
h-161z" />
    <glyph glyph-name="N" unicode="N" horiz-adv-x="535" 
d="M340 0l4.5 4t10 12.5t10.5 20.5t5 29v302l-195 144q3 -114 6 -206q1 -40 2 -79t2 -71t1.5 -55t0.5 -30q0 -18 5.5 -31.5t12.5 -22.5q8 -11 19 -17h-193l24 71q0 25 -0.5 61.5t-1 78.5t-1 87t-0.5 88q-1 101 -2 212l-103 102h217l211 -193v139q0 8 -8.5 18t-19.5 19
q-12 11 -28 22h180v-137q0 -34 -0.5 -87t-1.5 -112t-1.5 -117t-0.5 -102v-51t1 -28q1 -9 5 -20t10 -21t12 -18.5t12 -11.5h-195z" />
    <glyph glyph-name="E" unicode="E" horiz-adv-x="421" 
d="M0 0q21 15 39 33q14 14 26.5 32t12.5 35q0 8 -0.5 34t-1 62.5t-1 80t-0.5 88.5q-2 105 -3 232q-20 29 -38.5 52.5t-36.5 50.5h400l1 -218l-41 115h-142v-164h128v-128l-26 26h-102v-220q0 -3 3 -3q40 0 70.5 2t55 7.5t43.5 16t36 27.5v-161h-423z" />
    <glyph glyph-name="e" unicode="e" horiz-adv-x="348" 
d="M27 0q9 13 16 25q6 11 11 23.5t5 23.5q0 8 -0.5 27t-1 44t-1 54.5t-0.5 59.5q-2 70 -3 152q-21 7 -38 13q-14 5 -25.5 9t-11.5 6l10.5 7.5t27.5 19.5t38.5 27t44.5 31l122 84l119 -162l-52 -37l-65 65l-42 -39v-116h110v-108l-23 20h-87v-133q0 -3 3 -3q34 0 57.5 2
t40.5 7.5t30 16t27 27.5v-146h-312z" />
    <glyph glyph-name="B" unicode="B" horiz-adv-x="492" 
d="M81 628l-84 74h314l179 -260l-153 -139l147 -46q1 -23 2.5 -46.5t1.5 -43.5q0 -22 -1 -44t-6.5 -43.5t-17 -41.5t-33.5 -38h-389l6 10t13.5 25.5t14 35.5t6.5 41v516zM353 180l-143 59v-149h89q25 0 39.5 15t14.5 34v41zM328 463l-71 99h-47v-188z" />
    <glyph glyph-name="b" unicode="b" horiz-adv-x="425" 
d="M69 414l-72 51l220 135l201 -223l-131 -118l126 -40q1 -19 2 -39t1 -37q0 -19 -1 -38t-5.5 -37.5t-14.5 -35.5t-28 -32h-334l5.5 8.5t12.5 22t12.5 30.5t5.5 35v318zM301 155l-123 50v-130h77q21 0 33.5 14t12.5 30v36zM238 383l-60 62v-126z" />
    <glyph glyph-name="S" unicode="S" horiz-adv-x="475" 
d="M117 646q1 1 1 2t1 2q0 1 1 2q0 6 -4.5 11.5t-11.5 12.5h273q-11 -9 -11 -23q0 -2 4 -12l104 -201h-137q5 6 10 11t5 9l-1 4q-13 38 -27.5 60t-31.5 33t-36.5 13.5t-41.5 2.5h-4l-49 -118l316 -180l-118 -243l-2 -4q-1 -1 -1 -2q0 -6 4.5 -11.5t11.5 -12.5h-273
q11 9 11 23q0 2 -4 12l-104 201h137q-5 -6 -10 -11t-5 -9l1 -4q13 -38 27.5 -60t31.5 -33t36.5 -13.5t41.5 -2.5h4l49 118l-316 180z" />
    <glyph glyph-name="I" unicode="I" horiz-adv-x="289" 
d="M18 0q12 21 22 42q8 18 15 39t7 38v430q0 15 -1.5 36t-6.5 43t-13.5 41t-22.5 31h241q-14 -13 -24 -32.5t-16 -41t-9 -42.5t-3 -36q0 -28 1 -56t1.5 -73t1.5 -116t1 -184q0 -17 10.5 -38t23.5 -39q15 -21 35 -42h-263z" />
    <glyph glyph-name="i" unicode="i" horiz-adv-x="212" 
d="M5 0q9 11 17 23q7 11 12.5 24.5t5.5 27.5v392q0 25 -12 55.5t-35 50.5h220q-23 -21 -38.5 -51t-15.5 -56q0 -23 0.5 -52t1.5 -73.5t1.5 -108.5t0.5 -157q0 -14 8.5 -27.5t19.5 -24.5q12 -12 28 -23h-214z" />
    <glyph glyph-name="h" unicode="h" horiz-adv-x="502" 
d="M26 0q9 11 17 23q7 11 12.5 24.5t5.5 27.5q0 7 -0.5 26t-1 44.5t-1 56t-0.5 60.5q-2 71 -3 157q-22 8 -39 15q-15 6 -27 10.5t-12 6.5q0 1 14.5 13.5t36 31.5t46.5 41t46.5 41t35.5 31.5l14 12.5v-334q32 23 63 38t66 25v61l-58 40l168 167v-251l85 3v-89l-85 -14v-192
q0 -14 5 -26t12 -22t14.5 -17t12.5 -11h-191q12 15 25 32t13 45v171q-32 -9 -64.5 -23.5t-65.5 -44.5v-105q0 -14 8.5 -27.5t19.5 -24.5q12 -12 28 -23h-200z" />
    <glyph glyph-name="Q" unicode="Q" horiz-adv-x="392" 
d="M276 119v457l-77 52l-81 -52v-457l81 -62zM199 -78l-188 176v507l188 149l165 -149v-539l-33 -34q22 -22 36.5 -37t32 -25t43.5 -15t71 -7.5t114.5 -3t174.5 -0.5v-66q-105 -1 -178 -1t-124 2t-84.5 8t-58 17t-44.5 28t-45 42zM225 54q1 -1 -4 6.5t-14.5 16.5t-23.5 16.5
t-30 7.5v50q0 13 1 26q30 0 52.5 -12.5t38.5 -26.5q18 -17 31 -38q5 -31 -2.5 -41.5t-18.5 -11.5t-21 3.5t-9 3.5z" />
    <glyph glyph-name="P" unicode="P" horiz-adv-x="511" 
d="M33 0q15 17 26 35q10 16 18 36t8 41v499l-88 93h326l168 -263q-32 -26 -68.5 -52.5t-74 -53t-73.5 -52t-65 -47.5q0 -32 1 -61q1 -25 1.5 -51t0.5 -43t7 -31.5t16 -25.5q10 -13 23 -24h-226zM328 463l-71 99h-47v-187z" />
    <glyph glyph-name="p" unicode="p" horiz-adv-x="424" 
d="M33 0q10 14 18 30q7 14 13 31.5t6 35.5v321l-73 50l222 138l203 -225q-29 -22 -61 -46t-64.5 -47.5t-62.5 -44.5t-54 -37q0 -27 1 -53q1 -22 1.5 -46t0.5 -41q0 -11 6 -22.5t14 -21.5q9 -11 21 -22h-191zM240 387l-60 62v-127z" />
    <glyph glyph-name="d" unicode="d" horiz-adv-x="420" 
d="M59 452l-71 41l181 106l238 -192q0 -93 0.5 -161.5t-3.5 -116.5t-15 -79t-33 -50h-332l5.5 8.5t12 22t12 30.5t5.5 35v356zM291 354l-122 68v-328h76q21 0 33.5 14.5t12.5 29.5v216z" />
    <glyph glyph-name="D" unicode="D" horiz-adv-x="517" 
d="M81 629l-84 69h295l198 -256q0 -109 0.5 -183.5t-4.5 -124.5t-17.5 -81t-38.5 -53h-389l6 10t13.5 25.5t14 35.5t6.5 41v517zM353 402l-143 134v-433h89q25 0 39.5 15t14.5 34v250z" />
    <glyph glyph-name="O" unicode="O" horiz-adv-x="428" 
d="M233 -85l-205 171v519l205 149l179 -149v-519zM310 131v419l-77 52l-81 -52v-419l81 -62z" />
    <glyph glyph-name="q" unicode="q" horiz-adv-x="384" 
d="M199 -78l-188 176v374l188 149l165 -149v-406l-33 -34q22 -22 36.5 -37t32 -25t43.5 -15t71 -7.5t114.5 -3t174.5 -0.5v-66q-105 -1 -178 -1t-124 2t-84.5 8t-58 17t-44.5 28t-45 42zM250 123l15 15v279l-63 52l-67 -52v-279l67 -62l14 10q-17 17 -20 31t4 20.5t20.5 4
t29.5 -18.5z" />
    <glyph glyph-name="H" unicode="H" horiz-adv-x="609" 
d="M518 94q0 -19 10.5 -35.5t23.5 -29.5q15 -15 35 -29h-221q7 3 12 9q5 5 8.5 14t3.5 25v245q-27 -24 -46 -36.5t-38 -18.5t-40 -7.5t-51 -3.5q0 -35 1 -67q0 -27 0.5 -56t0.5 -47q0 -17 3 -28t8 -18q5 -8 12 -12h-226q15 12 27 26q11 12 19.5 28.5t8.5 35.5v548
q0 15 -5.5 26.5t-12.5 19.5q-8 10 -17 17h197q-7 -4 -11 -10q-4 -5 -7 -13.5t-3 -20.5v-264q33 1 56 3t42.5 7.5t38.5 17.5t44 35v205q0 11 -3 19t-6 13q-4 5 -9 8h191q-13 -8 -23 -18q-8 -8 -15 -19.5t-7 -23.5v-95l66 63l15 -92l-81 -110z" />
    <glyph glyph-name="s" unicode="s" horiz-adv-x="385" 
d="M93 179q-20 -10 -29 -22t-9 -23q0 -21 28 -37.5t78 -16.5q34 0 56.5 16t22.5 55q0 42 -20.5 61.5t-58.5 26.5q-41 7 -78 11t-85 7l14 79l45 -7q-9 11 -13 27t-4 33q0 22 5 41.5t12 30.5l-92 16l165 135q34 -16 73.5 -32.5t76.5 -38t67 -49.5t47 -65l-14 -15l-19 -1l8 9
l-21 -3l9 11l-19 -6l8 13l-16 -11l4 14l-14 -14l2 17l-43 -20l5 -3l22 1l-8 -8l18 3l-7 -9l18 7l-10 -9l20 5l-7 -11l19 4l-9 -11l17 1l-23 -22q-14 5 -28 10.5t-25 12t-18.5 14.5t-7.5 17q0 7 4 11t8.5 6t8.5 3.5t4 3.5t-6.5 2h-15.5h-24q-11 0 -26 -3t-28.5 -10t-23 -17.5
t-9.5 -25.5q0 -17 3 -31t12.5 -25t28 -19.5t50.5 -13.5q30 -5 52.5 -15.5t38 -30.5t23 -52t7.5 -80q0 -17 -6 -38.5t-20 -40.5t-36.5 -32.5t-54.5 -13.5l-81 -5q-49 0 -80.5 7t-50 19.5t-26.5 30.5t-9 40v8q0 36 22 57t73 21zM350 458q-14 7 -18.5 12.5t-6.5 9t-4.5 6.5
t-11.5 6l1 -16z" />
    <glyph glyph-name="G" unicode="G" horiz-adv-x="459" 
d="M325 188l-27 41h-71v74l169 -3l88 -360l-107 147l-168 -184l-165 178v503l157 169l168 -176l-95 -64l-50 71l-33 -44v-427l30 -39z" />
    <glyph glyph-name="g" unicode="g" 
d="M288 181l-13 30h-71v74l159 -3l92 -332l-107 147l-156 -151l-165 178v316l157 169l168 -176l-95 -64l-50 71l-33 -44l-1 -250l31 -31z" />
    <glyph glyph-name="J" unicode="J" horiz-adv-x="481" 
d="M365 -119q-56 0 -110 10.5t-101 28.5t-84.5 42.5t-60.5 52.5v173q12 -28 45 -55t71 -48t71 -34t45 -13v518h-10q-9 0 -24.5 -1.5t-32 -7.5t-31.5 -18t-25 -33v160q0 13 -4.5 22t-9.5 14q-6 6 -13 10h328q-14 -11 -20 -20.5t-6 -30.5v-558q0 -24 4.5 -38.5t14.5 -23
t25.5 -12.5t36.5 -6z" />
    <glyph glyph-name="j" unicode="j" horiz-adv-x="400" 
d="M310 -1q-46 0 -89.5 8.5t-81.5 23.5t-69 34.5t-50 42.5v142q10 -23 37 -45t58 -39.5t58 -28t36 -10.5v328h-9q-8 0 -20 -1.5t-25 -6.5t-25.5 -15t-20.5 -27v27.5t0.5 37t0.5 38v29.5q0 10 -3.5 17t-8.5 12t-11 8l267 -1q-11 -8 -16 -15.5t-5 -24.5v-361q0 -38 15.5 -50
t50.5 -15z" />
    <glyph glyph-name="l" unicode="l" horiz-adv-x="390" 
d="M-1 107q34 3 45 15t11 50v238q-17 17 -35 31t-20 15l178 164q0 -56 0.5 -91.5t0.5 -73.5v-328h9q14 0 40.5 1t54.5 6.5t53.5 17.5t37.5 34v-142l-3 -5q-6 -9 -11 -15.5t-15.5 -11t-28 -7t-48.5 -4t-77 -2t-113 -0.5z" />
    <glyph glyph-name="L" unicode="L" horiz-adv-x="321" 
d="M-4 4q8 -2 11 -3l4 -1q14 -4 26.5 -6.5t22.5 -2.5q17 0 26.5 10t9.5 37v526q0 25 -8.5 47t-19.5 40t-22 31t-16 18h291q-25 -26 -39 -43t-20.5 -32t-8 -30.5t-1.5 -39.5v-590q22 -10 60 -16.5t81 -6.5q27 0 53.5 3t49.5 10t41 18t27 27v-173q-10 -16 -45 -23.5t-89 -7.5
q-77 0 -178.5 13.5t-205.5 35.5z" />
    <glyph glyph-name="k" unicode="k" horiz-adv-x="418" 
d="M281 461v148l120 -183l-116 -162l80 -48q-2 -8 -3 -19q-1 -9 -1.5 -21t-0.5 -26q0 -19 2 -40.5t7.5 -41.5t15.5 -38t26 -30h-121q-13 11 -24 23q-9 11 -16 24.5t-7 28.5q0 14 -0.5 28.5t-1.5 26.5q-1 14 -1 27l-62 50q0 -29 1 -55q0 -23 0.5 -46t0.5 -37q0 -15 5.5 -28
t13.5 -22q8 -11 19 -20h-96h-35.5t-31 -0.5t-22.5 -1l-9 -0.5q0 -1 7 7t15.5 22t16 32t7.5 38v320l-70 52l178 150v-299z" />
    <glyph glyph-name="K" unicode="K" horiz-adv-x="477" 
d="M208 700v-326l120 89v171l-43 66h150v-308l-100 -85l93 -55q-2 -10 -3 -21q-1 -10 -1.5 -23.5t-0.5 -29.5q0 -23 2.5 -48t9 -49t18 -45.5t30.5 -35.5h-141q-16 12 -27 27q-11 12 -19 28t-8 33t-0.5 33.5t-1.5 30.5q-1 16 -1 32l-75 58q0 -33 1 -64q1 -26 1.5 -53t0.5 -44
t7 -31.5t16 -25.5q10 -13 23 -24h-226q15 17 26 35q10 16 18 36t8 41v502l-88 86h211z" />
    <glyph glyph-name="X" unicode="X" horiz-adv-x="493" 
d="M203 184l-2 -32q-1 -14 -1 -30.5v-33.5t-8.5 -33t-18.5 -28q-12 -15 -27 -27h-141q19 14 30.5 35.5t18 45.5t9 49t2.5 48q0 16 -1 29.5t-2 23.5q-1 11 -2 21l93 55l-98 85v230l-54 78h159v-237l90 -89l91 89v171l-44 66h150v-308l-100 -85l93 -55q-2 -10 -3 -21
q-1 -10 -1.5 -23.5t-0.5 -29.5q0 -23 2.5 -48t9 -49t18 -45.5t30.5 -35.5h-141q-16 12 -27 27q-11 12 -19 28t-8 33t-0.5 33.5t-1.5 30.5q-1 16 -1 32l-47 58z" />
    <glyph glyph-name="x" unicode="x" 
d="M173 158q-1 -13 -2 -27q-1 -12 -1 -27.5v-30.5q0 -14 -7.5 -26.5t-15.5 -23.5q-11 -12 -23 -23h-119q16 12 26 30t16 39.5t8 43.5t2 41q0 14 -1 25t-2 19q-1 10 -2 18l79 47l-83 74v99l-47 31l150 135v-204l64 -76l63 76v62l-48 27l154 115v-265l-86 -74l80 -47
q-2 -8 -3 -18q-1 -8 -1.5 -19t-0.5 -25q0 -19 2 -41t8 -43.5t16 -39.5t27 -30h-122q-13 11 -24 23q-9 11 -16 23.5t-7 26.5q0 15 -0.5 30.5t-0.5 27.5q-1 14 -1 27l-40 50z" />
    <glyph glyph-name="Y" unicode="Y" horiz-adv-x="509" 
d="M185 356q-40 79 -69.5 135t-50.5 94t-34.5 60.5t-21 34.5t-10 15t-1.5 3h215q-8 -5 -14 -11q-5 -5 -9 -12.5t-4 -17.5q0 -7 1 -11l72 -140l69 146q1 4 1.5 6.5t0.5 5.5q0 11 -6.5 18.5t-18.5 15.5h204q-17 -15 -43 -56q-22 -35 -56 -103t-81 -183v-293q0 -15 5 -27
t12 -20q8 -10 18 -16h-224q12 8 22 18q8 8 15.5 19t7.5 24v295z" />
    <glyph glyph-name="y" unicode="y" horiz-adv-x="423" 
d="M153 603v-280l67 -60l55 60v229h149q-12 -9 -22 -18q-8 -8 -15 -17.5t-7 -18.5v-435l-152 -214l-199 248l191 -79l55 76v83l-58 -72l-178 179v140l-49 33z" />
    <glyph glyph-name="Z" unicode="Z" horiz-adv-x="434" 
d="M0 0l-2 128l276 428h-161q-9 0 -24.5 -1.5t-32 -7.5t-31.5 -18t-25 -33v120q0 40 1 86q6 -1 52 -1h361v-145l-279 -428q81 0 128.5 2t75.5 8t42.5 17.5t28.5 29.5v-185h-410z" />
    <glyph glyph-name="z" unicode="z" horiz-adv-x="425" 
d="M166 457q-1 -4 -1 -8q-1 -4 -1 -8.5v-8.5q0 -14 -7.5 -26.5t-15.5 -23.5q-11 -12 -23 -23h-119q16 12 26 30t16 39.5t8 43.5t2 41q0 14 -1 25t-2 19q-1 10 -2 18h218h120v-231l-223 -253h110q-5 11 -6 22.5t-2 21.5q-1 11 0 23h110q0 -19 2 -42t8 -44.5t16 -40.5t27 -31
h-421q32 23 42 49t10 64q0 14 -1 25t-2 19q-1 10 -2 18l226 230l3 52h-115z" />
    <glyph glyph-name="zero" unicode="0" horiz-adv-x="486" 
d="M228 -27l-203 150v449l203 130l179 -130v-449zM307 161v364l-79 45l-84 -45v-364l84 -55z" />
    <glyph glyph-name="one" unicode="1" horiz-adv-x="298" 
d="M26 0q13 11 24 25q9 12 17 28t8 36q0 7 -0.5 28t-1 50t-1 63.5t-0.5 69.5q-2 82 -3 181q-26 9 -46 18q-17 7 -31.5 13.5t-14.5 8.5l16.5 15t41 36.5t53.5 46.5t53.5 46.5t40.5 35.5l16 14v-626q0 -20 10.5 -36t23.5 -28q15 -14 35 -25h-241z" />
    <glyph glyph-name="two" unicode="2" 
d="M0 0v128l222 258q16 22 23 42t7 38q0 35 -23.5 57t-59.5 22q-38 0 -83.5 -30t-83.5 -101q0 8 -5 147l212 142l207 -229l-281 -346q81 0 128.5 2t75.5 8t42.5 17.5t28.5 29.5v-185h-410z" />
    <glyph glyph-name="three" unicode="3" horiz-adv-x="488" 
d="M33 593l132 107h233l26 -258l-118 -139l147 -46q1 -23 2.5 -46.5t1.5 -43.5q0 -22 -1 -44t-6.5 -43.5t-17 -41.5t-33.5 -38h-389l6.5 13.5t14 33.5t14 43.5t6.5 44.5q16 -15 41.5 -24t55 -13.5t61 -6t59.5 -1.5q29 0 41.5 15t12.5 34v41q-78 35 -115.5 61.5t-37.5 58.5
q0 30 32.5 69.5t95.5 93.5l-10 99q-17 18 -42 18q-20 0 -42.5 -9.5t-43.5 -24.5t-38.5 -33t-28.5 -35z" />
    <glyph glyph-name="four" unicode="4" horiz-adv-x="571" 
d="M188 760v-340l82 -71h67v349h182q-16 -11 -27 -22q-11 -10 -19 -21t-8 -22v-282h79v-154h-79v-146q0 -18 6.5 -29t19.5 -23h-173q19 23 19 51v148h-113l-174 175v169l-60 41z" />
    <glyph glyph-name="five" unicode="5" horiz-adv-x="462" 
d="M458 416l-118 -384l-2 -4q-1 -1 -1 -2q0 -6 4.5 -11.5t11.5 -12.5h-273q11 9 11 23q0 2 -4 12l-104 201h137q-5 -6 -10 -11t-5 -9l1 -4q13 -38 27.5 -60t31.5 -33t36.5 -13.5t41.5 -2.5h4l49 205l-206 33q-21 3 -34 15.5t-20.5 29t-10 35.5t-2.5 37v237h389v-167h-111v51
h-146v-100z" />
    <glyph glyph-name="six" unicode="6" horiz-adv-x="460" 
d="M344 518q-22 39 -53 50t-60 11q-13 -6 -23 -15q-9 -8 -16 -20t-7 -29t-0.5 -33t-1.5 -29q-1 -15 -1 -28h149l116 -234l-107 -191h-218l-65 89v499q0 50 32.5 81t92.5 31q21 0 53.5 -2t65.5 -14t61 -37.5t40 -73.5zM276 286h-94v-101l61 -63l69 76z" />
    <glyph glyph-name="nine" unicode="9" horiz-adv-x="463" 
d="M102 177q22 -39 53 -50t60 -11q12 6 23 15q8 8 15.5 20t7.5 29v33t1 29q1 15 2 28h-149l-116 234l107 191h323l-40 -89v-499q0 -50 -32.5 -81t-92.5 -31q-21 0 -53.5 2t-65.5 14t-61 37.5t-40 73.5zM170 409h96v126l-84 44l-45 -95z" />
    <glyph glyph-name="eight" unicode="8" horiz-adv-x="426" 
d="M3 86v212l100 85l-93 55q1 10 2 21q1 10 2 23.5t1 29.5v35q0 20 2 40.5t10.5 39.5t24.5 35t44 28h208q28 -12 44 -28t24 -35t10.5 -39.5t2.5 -40.5v-35q0 -16 0.5 -29.5t1.5 -23.5q1 -11 3 -21l-93 -55l98 -85v-202l-192 -106zM290 166v61l-90 89l-91 -89v-61l94 -87z
M153 558v-52l47 -58l50 58v52l-48 44z" />
    <glyph glyph-name="seven" unicode="7" horiz-adv-x="527" 
d="M526 492l-12 3q-13 3 -22.5 5.5t-17.5 2.5q-14 0 -24.5 -9.5t-23.5 -35.5q-22 -46 -48.5 -97t-50 -101.5t-39 -98t-15.5 -86.5q0 -23 6.5 -42t21.5 -33h-242q16 16 27.5 30t23.5 33t25.5 46t32.5 70t45.5 105t64.5 151q10 23 20 46.5t21 49.5q-22 10 -60 16.5t-81 6.5
q-27 0 -53.5 -3t-49.5 -10t-41 -18t-27 -27v173q10 16 40 23.5t76 7.5q66 0 157.5 -13.5t195.5 -35.5z" />
    <glyph glyph-name="at" unicode="@" horiz-adv-x="635" 
d="M334 120q7 8 12 16q5 7 9 15.5t4 17.5q0 8 -2.5 24t-4.5 33q-4 19 -7 41q-27 -10 -48 -23q-18 -12 -33 -29.5t-15 -41.5l1 -9q20 -26 30.5 -35t9.5 -9h-146q8 7 16.5 20t10.5 29q0 4 3 19t6.5 36.5t8.5 47.5t10 53q11 62 26 138l-24 32l160 95q-2 -6 -3 -13
q-3 -12 -3 -29q0 -16 4 -28q3 -11 11 -38t16 -56q10 -33 20 -73l59 17l10 -50l-53 -23q6 -31 14 -59q6 -24 14.5 -49.5t18.5 -40.5q0 -10 7 -10q28 3 43.5 25.5t22.5 57t8 77.5t1 88v13q0 37 -21.5 79.5t-56.5 78t-79.5 59t-90.5 23.5q-47 0 -87.5 -24t-71 -65.5t-48 -97.5
t-17.5 -120q0 -58 12.5 -111t40.5 -93.5t74 -65t113 -24.5q14 0 29.5 1.5t32.5 3.5q1 1 -9 -4.5t-28.5 -12.5t-43 -13t-51.5 -6q-24 0 -49.5 6.5t-50 24t-46 46.5t-38.5 74q-20 55 -29 103t-9 91q0 54 12 98t31 78t42.5 58t46.5 37l17 9q33 19 73.5 37t86.5 18q43 0 88 -23
t90 -82q50 -66 70 -141t20 -143q0 -35 -4.5 -66.5t-12.5 -56.5t-18.5 -42.5t-22.5 -24.5q-25 -14 -46 -14q-13 0 -22.5 4t-16.5 9q-8 5 -14 13h-113zM272 291l59 39l-33 96z" />
    <glyph glyph-name="period" unicode="." horiz-adv-x="156" 
d="M12 141h129v-46q0 -14 -5.5 -30.5t-14.5 -30.5t-21 -24t-24 -10t-23.5 10t-20.5 24t-14.5 30.5t-5.5 30.5v46z" />
    <glyph glyph-name="slash" unicode="/" horiz-adv-x="509" 
d="M277 351q-4 -4 -7 -8l-4 -8t-2 -7t1 -4q12 -3 12 -22q0 -12 -7 -23q-5 -6 -9.5 -9.5t-9.5 -6t-10 -6t-11 -10.5q-17 -23 -17 -37l1 -6q3 -9 9 -10t5 -3q-2 -3 -8 -2.5t-9 -6.5q-2 -4 -2 -8q0 -3 0.5 -5t0.5 -4q0 -3 -1 -3q1 0 -3 2q-2 -11 -3.5 -35.5t-14.5 -65.5
q-13 -38 -20 -61t-22 -31q-2 -1 -7 -1q-9 0 -21.5 6t-24 14t-20.5 16t-11 12q-5 7 -5 15t5.5 21t21.5 36q26 40 46 68t28 40q9 12 10.5 24.5t3.5 27.5q1 17 5 41.5t17 43.5q-3 -1 -8 -1q-7 0 -15 5q-6 0 -10 3q-3 1 -5 3q1 1 3 2l4 2t4 1t6 -2q1 3 4 6q2 2 3 2l3 -1
q2 1 2.5 3t2.5 4l3 5l1 -5q0 -4 -2 -8q-2 -8 -2 -11q0 -4 4 -4q6 5 5.5 9.5t9.5 9.5q9 4 11 9q1 2 1 4q-5 0 -9 2q-10 4 -12 9h6q5 0 8.5 -1t5.5 -2q3 -1 5 -2l3 3q4 4 4 6v1q0 2 1 3l11 9l-2 2l-2 2l5 -1q4 7 19.5 29t35 49t38.5 53t28 41q10 16 21 33t21 32t17 26.5
t9 17.5q4 8 6.5 12.5t11.5 4.5h5q26 -6 28 -27q1 -2 1 -6q0 -6 -5 -10t-13 -12q-5 -5 -10 -11t-10 -11q-5 -6 -11 -13l1 -2q0 -2 0.5 -4t0.5 -4q0 -5 -2 -12t-8 -17zM215 193q0 2 -1.5 5t-3.5 5q-2 -6 -2 -9v-5q0 -1 1 -2zM228 253q2 3 3.5 4.5l3.5 3.5l3 3q-1 0 -2 1
q-1 0 -3 2q-1 1 -1.5 2.5t-1.5 3.5t-1 3q0 -1 -1 -3l-2 -4t-2 -5q-3 -7 -5 -15q-1 -4 -2 -9zM235 271q4 -3 8 -3q12 0 21 14q11 9 11 19q0 7 -5 12q-6 7 -9 7q-5 0 -16 -18q0 -3 1 -5q2 -2 4.5 -2.5t4.5 -1.5q3 -1 6 -1q0 -2 -5 -2q-3 0 -7 1t-6 4q-1 1 -3 1t-2 -3
q-6 -11 -6 -15t3 -7z" />
    <glyph glyph-name="backslash" unicode="\" horiz-adv-x="463" 
d="M332 89l-63 -29l-21 45l40 -15l31 15l-243 522l-29 122l74 -101l244 -522l31 15l15 40l21 -45l-63 -30l51 -111q13 -3 18 -15q3 -6 3 -12q0 -3 -2 -11q-4 -12 -16 -16q-8 -4 -13 -4q-3 0 -9 2q-13 5 -17 15q-2 4 -2 12v6.5t2 6.5z" />
    <glyph glyph-name="colon" unicode=":" horiz-adv-x="230" 
d="M48 342h129v-46q0 -14 -5.5 -30.5t-14.5 -30.5t-21 -24t-24 -10t-23.5 10t-20.5 24t-14.5 30.5t-5.5 30.5v46zM48 48q0 13 5.5 30t14.5 31t20.5 24t23.5 10t24 -10t21 -24t14.5 -31t5.5 -30v-46h-129v46z" />
    <glyph glyph-name="Zh" unicode="&#x415;" horiz-adv-x="785" 
d="M128 149q6 32 13 63t16.5 58.5t22.5 50t31 38.5q12 10 11 19.5t-10.5 19t-23.5 20t-26.5 24t-21.5 30.5t-8 40q2 34 -13.5 65.5t-34.5 55.5q-22 28 -51 53h178q6 -34 12 -67q5 -28 10.5 -58.5t10.5 -52.5q4 -22 15 -31t23 -16t21 -15.5t11 -28.5q1 -10 2 -4t2 23t2 42
t3 53q3 65 7 155h87l-4 -261q3 0 10.5 9.5t21.5 21.5t35.5 23.5t52.5 16.5q20 3 30.5 17.5t14.5 35.5t3 44.5t-4 43.5t-6.5 33.5t-4.5 14.5q3 -2 20.5 0t37.5 5q24 4 53 8q-7 -38 -12 -74q-5 -31 -9.5 -64t-7.5 -56t-24.5 -45.5t-46.5 -39.5q-29 -20 -65 -39q20 -36 37 -74
q14 -32 25.5 -72t11.5 -77q0 -36 13 -58.5t28.5 -35.5t29 -17.5t15.5 -4.5l-160 -8q-17 7 -29 20q-11 11 -20 31t-9 52q0 31 -8 62.5t-17 57.5q-11 30 -24 58l4 -264h-103l8 243q-23 -19 -41 -41q-16 -19 -29.5 -42.5t-16.5 -48.5t-12 -48t-18 -41q-11 -21 -24 -39
q-25 6 -47 10l-70 14q7 1 17.5 6t21 15.5t19.5 27.5t14 43zM45 58q5 -2 11 -1q-6 2 -9.5 2t-1.5 -1zM566 686v-1v1z" />
    <glyph glyph-name="dollar" unicode="$" horiz-adv-x="454" 
d="M199 792h75v-899h-75v899zM117 646q1 1 1 2t1 2q0 1 1 2q0 6 -4.5 11.5t-11.5 12.5h273q-11 -9 -11 -23q0 -2 4 -12l104 -201h-137q5 6 10 11t5 9l-1 4q-13 38 -27.5 60t-31.5 33t-36.5 13.5t-41.5 2.5h-4l-49 -118l316 -180l-118 -243l-2 -4q-1 -1 -1 -2q0 -6 4.5 -11.5
t11.5 -12.5h-273q11 9 11 23q0 2 -4 12l-104 201h137q-5 -6 -10 -11t-5 -9l1 -4q13 -38 27.5 -60t31.5 -33t36.5 -13.5t41.5 -2.5h4l49 118l-316 180z" />
    <glyph glyph-name="ampersand" unicode="&#x26;" horiz-adv-x="635" 
d="M439 365q6 -2 13 -3q6 -1 14.5 -1.5t19.5 -0.5q15 0 31.5 17.5t32 43.5t29 56t22.5 56v-191q-8 -21 -17 -37q-8 -14 -17 -25.5t-19 -11.5q-13 0 -24.5 -4t-20.5 -9q-11 -6 -19 -13l-39 -40l39 -42q8 -9 19 -15q9 -5 20.5 -9.5t24.5 -4.5q10 0 19 -11t17 -25q9 -16 17 -36
v-187q-9 25 -22.5 55t-29 56t-32 43.5t-31.5 17.5q-11 0 -19.5 -1t-14.5 -2q-7 -1 -13 -2l-80 49l-156 -98l-200 96v212l139 72l-75 59q-4 8 -7 19q-2 9 -4 22t-2 29v35q0 20 2 40.5t10.5 39.5t24.5 35t44 28h208q28 -12 44 -28t24 -35t10.5 -39.5t2.5 -40.5v-35
q0 -16 0.5 -24.5t1.5 -12.5t3 -5l-93 -87l51 -52zM290 166v61l-73 65l-108 -65v-61l94 -87zM192 545v-52l47 -58l50 58v52l-48 44z" />
    <glyph glyph-name="W" unicode="W" horiz-adv-x="668" 
d="M-2 700h21h40.5h50h49t38.5 0.5t19 0.5q-7 -5 -12 -11q-5 -5 -8.5 -13t-3.5 -19v-6q1 -6 4.5 -26.5t9 -49t12.5 -63t15 -69.5q17 -83 39 -183l106 426l112 -415q14 92 25 169q5 33 10 65t9 60t7 48t5 29q1 5 1 13q0 13 -3.5 21.5t-8.5 13.5q-5 6 -12 9h238q-8 -6 -17 -16
q-8 -8 -17 -20t-20 -28q-5 -8 -12.5 -35t-16 -66.5t-18 -87.5t-18.5 -98t-17 -98t-14 -87.5t-9.5 -66.5t-3.5 -34q0 -15 5 -27t12 -20q8 -10 18 -16h-230q6 4 10 10q4 5 7.5 13.5t3.5 20.5q0 4 -1.5 15.5t-4.5 28t-6.5 35.5t-7.5 38q-9 45 -19 99q-10 -51 -19 -94
q-8 -37 -14 -72.5t-7 -48.5v-5q0 -12 2.5 -19.5t6.5 -12.5t9 -8h-232q12 8 22 18q8 8 15.5 19t7.5 24q0 8 -9 50.5t-23.5 101.5t-31 127.5t-32 129t-26.5 105t-14 56.5q-5 17 -12 30.5t-14 21.5q-8 10 -16 17z" />
    <glyph glyph-name="A" unicode="A" horiz-adv-x="501" 
d="M5 0q9 8 22.5 28.5t16.5 42.5q1 7 5.5 33.5t12 66t17 87t18.5 96.5q22 114 50 256l-40 94l221 -4q-2 -9 -4 -20q-2 -9 -3 -20.5t-1 -23.5q0 -11 1 -20.5t4 -19.5q2 -8 6 -23.5t9.5 -34.5t11.5 -41t12 -43q14 -50 30 -109l87 27l17 -76l-81 -32q13 -58 27 -110
q12 -45 27.5 -88.5t31.5 -65.5h-215q10 11 18 23q7 11 13 23t6 25q0 12 -3.5 36.5t-7.5 49.5q-5 29 -11 62q-40 -15 -71 -35q-26 -17 -48 -43.5t-22 -62.5q0 -9 1 -14q28 -37 44 -50.5t15 -13.5h-217zM195 256l88 57l-49 145z" />
    <glyph glyph-name="R" unicode="R" horiz-adv-x="494" 
d="M33 0q15 17 26 35q10 16 18 36t8 41v502l-88 90h337l157 -263l-156 -134l93 -55q-2 -10 -3 -21q-1 -10 -1.5 -23.5t-0.5 -29.5q0 -23 2.5 -48t9 -49t18 -45.5t30.5 -35.5h-141q-16 12 -27 27q-11 12 -19 28t-8 33t-0.5 33.5t-1.5 30.5q-1 16 -1 32l-75 58q0 -33 1 -64
q1 -26 1.5 -53t0.5 -44t7 -31.5t16 -25.5q10 -13 23 -24h-226zM328 463l-71 99h-47v-188z" />
    <glyph glyph-name="question" unicode="?" horiz-adv-x="473" 
d="M150 139h129v-46q0 -14 -5.5 -30.5t-14.5 -30.5t-21 -24t-24 -10t-23.5 10t-20.5 24t-14.5 30.5t-5.5 30.5v46zM143 246q-1 -1 -6 9t-10 19q-5 8 -9 17.5t-4 17.5q0 3 1 5q1 3 6 3t11.5 -3t11.5 -3q7 1 12.5 9t15.5 18l109 110q9 15 15.5 30.5t6.5 32.5v5q-1 24 -12 41.5
t-25 28.5t-28.5 16.5t-21.5 5.5q-8 0 -18.5 -2.5t-22 -9.5t-22.5 -18t-18 -28q-7 -15 -7 -32q0 -25 10 -45t15 -31l1 -3v-4q0 -11 -9 -19.5t-20 -11.5q-2 -1 -7 -1q-7 0 -13 2t-11 2l-3 -1q-7 -2 -13 -11t-10 -9q-6 1 -18.5 14.5t-25.5 32t-23 38t-10 31.5q0 8 6 11l3 1
q7 0 15 -8t14 -16q5 -7 15.5 -13.5t18.5 -6.5q4 0 7 3q2 4 2 6q0 8 -6 18t-11 19q-3 6 -9 8.5l-12 5t-11 5.5t-6 10q0 7 9 19.5t20 25.5q12 15 29 31l6 30q2 11 5 21t7 12q1 1 4 1q5 0 11 -2.5t12 -5.5l14 -8q18 16 34 29q14 11 27 20.5t19 9.5t19.5 -9t27.5 -20
q16 -13 35 -29q7 3 13 7q5 3 11.5 5.5t12.5 2.5q5 0 8 -3q5 -4 7 -13.5t4 -19.5q2 -12 2 -26q16 -16 29 -31q11 -13 20.5 -26t9.5 -20q-2 -12 -12.5 -17t-18.5 -11q-6 -5 -14.5 -15t-8.5 -21q0 -3 2 -7q1 -2 4 -2q5 0 14 6t18.5 13t19.5 13t16 6q3 0 5 -2t2 -5q0 -9 -10 -28
t-22.5 -38t-25 -34t-18.5 -16q-5 0 -13.5 8.5t-20.5 8.5q-4 0 -7 -1q-13 -5 -21.5 -14t-13.5 -20t-7 -22.5t-2 -19.5q0 -3 0.5 -5t0.5 -4q1 -6 8 -6q4 0 8 1t9 1q6 0 9 -6q0 -1 0.5 -1.5t0.5 -2.5q0 -6 -8.5 -24t-19.5 -39q-11 -23 -22.5 -41.5t-19.5 -18.5q-8 1 -11 17.5
t-3 40.5q0 27 -5 40t-11 14t-11 -11.5t-5 -36.5q0 -9 -0.5 -19.5t-1.5 -20t-4 -16.5t-7 -8q-5 0 -12 10t-13.5 22t-12 22zM157 530q0 5 7 16.5t16.5 23t19.5 20.5t15 9q4 0 14 -9t19.5 -20.5t17 -23t7.5 -16.5q0 -7 -7 -18.5t-17 -23t-19.5 -19.5t-14.5 -8q-6 0 -16 9
t-19 20.5t-16 23t-7 16.5z" />
    <glyph glyph-name="greater" unicode="&#x3e;" horiz-adv-x="612" 
d="M6 25l234 273l-234 277l357 -243q6 12 16 23q8 9 20.5 16.5t30.5 7.5q17 0 30.5 -7.5t21.5 -16.5q10 -11 16 -23l114 -32l-114 -33q-7 -13 -17 -24q-8 -9 -21 -16t-30 -7t-30 7t-21 16q-10 11 -16 24z" />
    <glyph glyph-name="exclam" unicode="!" horiz-adv-x="254" 
d="M63 141h129v-46q0 -14 -5.5 -30.5t-14.5 -30.5t-21 -24t-24 -10t-23.5 10t-20.5 24t-14.5 30.5t-5.5 30.5v46zM61 186q7 10 11 17.5t5.5 15.5t2 17.5t0.5 23.5l-22 233q-17 17 -35 31t-20 15l178 164q0 -103 -5.5 -214t-5.5 -229q0 -15 0.5 -24t2.5 -16.5t6 -15t11 -18.5
h-129z" />
    <glyph glyph-name="less" unicode="&#x3c;" horiz-adv-x="615" 
d="M255 267q-6 -13 -16 -24q-8 -9 -21 -16t-30 -7t-30 7t-21 16q-10 11 -17 24l-114 33l114 32q6 12 16 23q8 9 21 16.5t31 7.5q17 0 30 -7.5t21 -16.5q10 -11 16 -23l357 243l-234 -277l234 -273z" />
    <glyph glyph-name="braceleft" unicode="{" horiz-adv-x="561" 
d="M255 267q-6 -13 -16 -24q-8 -9 -21 -16t-30 -7t-30 7t-21 16q-10 11 -17 24l-114 33l114 32q6 12 16 23q8 9 21 16.5t31 7.5q17 0 30 -7.5t21 -16.5q10 -11 16 -23l227 379h139l-163 -83l-80 -330l84 -329l160 -80h-140z" />
    <glyph glyph-name="braceright" unicode="}" horiz-adv-x="542" 
d="M64 -111h-140l160 80l84 329l-80 330l-163 83h139l227 -379q6 12 16 23q8 9 20.5 16.5t30.5 7.5q17 0 30.5 -7.5t21.5 -16.5q10 -11 16 -23l114 -32l-114 -33q-7 -13 -17 -24q-8 -9 -21 -16t-30 -7t-30 7t-21 16q-10 11 -16 24z" />
    <glyph glyph-name="parenright" unicode=")" horiz-adv-x="312" 
d="M64 -111h-140l160 80l84 329l-80 330l-163 83h139l227 -379v-65z" />
    <glyph glyph-name="parenleft" unicode="(" horiz-adv-x="318" 
d="M35 267v65l227 379h139l-163 -83l-80 -330l84 -329l160 -80h-140z" />
    <glyph glyph-name="asterisk" unicode="*" horiz-adv-x="413" 
d="M156 483l-149 18l151 23l-88 113l116 -86l21 149l22 -150l113 90l-87 -119l151 -20l-151 -20l96 -115l-122 87l-22 -152l-23 151l-120 -85z" />
    <glyph glyph-name="plus" unicode="+" 
d="M231 194l-78 -78l43 149l-149 -43l78 78l-78 78l149 -43l-43 149l78 -78l78 78l-43 -149l149 43l-78 -78l78 -78l-149 43l43 -149z" />
    <glyph glyph-name="comma" unicode="," horiz-adv-x="194" 
d="M23 141h127l9 -114q0 -16 -4 -34t-12 -29q-9 -12 -16.5 -18.5t-14 -9t-12 -3.5t-9.5 -2q21 17 28 41t7 38q0 12 -3 12q-8 -10 -17 -16t-19 -6q-12 0 -23.5 10t-20.5 24t-14.5 30.5t-5.5 30.5v46z" />
    <glyph glyph-name="semicolon" unicode=";" horiz-adv-x="217" 
d="M50 141h127l9 -124q0 -31 -16 -53q-9 -12 -16.5 -18.5t-14 -9t-12 -3.5t-9.5 -2q21 17 28 41t7 38q0 12 -3 12q-8 -10 -17 -16t-19 -6q-12 0 -23.5 10t-20.5 24t-14.5 30.5t-5.5 30.5v46zM48 342h129v-46q0 -14 -5.5 -30.5t-14.5 -30.5t-21 -24t-24 -10t-23.5 10
t-20.5 24t-14.5 30.5t-5.5 30.5v46z" />
    <glyph glyph-name="quotesingle" unicode="'" horiz-adv-x="238" 
d="M50 638h129v-46q0 -14 -5.5 -41t-14.5 -54t-21 -47t-24 -20t-23.5 20t-20.5 47t-14.5 54t-5.5 41v46z" />
    <glyph glyph-name="quotedblright" unicode="&#x201d;" horiz-adv-x="314" 
d="M6 650h127l9 -114q0 -16 -4 -34t-12 -29q-9 -12 -16.5 -18.5t-14 -9t-12 -3.5t-9.5 -2q21 17 28 41t7 38q0 12 -3 12q-8 -10 -17 -16t-19 -6q-12 0 -23.5 10t-20.5 24t-14.5 30.5t-5.5 30.5v46zM160 650h127l9 -114q0 -16 -4 -34t-12 -29q-9 -12 -16.5 -18.5t-14 -9
t-12 -3.5t-9.5 -2q21 17 28 41t7 38q0 12 -3 12q-8 -10 -17 -16t-19 -6q-12 0 -23.5 10t-20.5 24t-14.5 30.5t-5.5 30.5v46z" />
    <glyph glyph-name="quotedblleft" unicode="&#x201c;" horiz-adv-x="311" 
d="M296 440h-127l-9 114q0 16 4 34t12 29q9 12 16.5 18.5t14 9t11.5 3t10 2.5q-21 -17 -28 -41t-7 -38q0 -12 3 -12q8 10 17 16t19 6q12 0 23.5 -10t20.5 -24t14.5 -31t5.5 -30v-46zM142 440h-127l-9 114q0 16 4 34t12 29q9 12 16.5 18.5t14 9t11.5 3t10 2.5
q-21 -17 -28 -41t-7 -38q0 -12 3 -12q8 10 17 16t19 6q12 0 23.5 -10t20.5 -24t14.5 -31t5.5 -30v-46z" />
    <glyph glyph-name="quoteleft" unicode="&#x2018;" horiz-adv-x="159" 
d="M142 440h-127l-9 114q0 16 4 34t12 29q9 12 16.5 18.5t14 9t11.5 3t10 2.5q-21 -17 -28 -41t-7 -38q0 -12 3 -12q8 10 17 16t19 6q12 0 23.5 -10t20.5 -24t14.5 -31t5.5 -30v-46z" />
    <glyph glyph-name="quoteright" unicode="&#x2019;" horiz-adv-x="169" 
d="M6 650h127l9 -114q0 -16 -4 -34t-12 -29q-9 -12 -16.5 -18.5t-14 -9t-12 -3.5t-9.5 -2q21 17 28 41t7 38q0 12 -3 12q-8 -10 -17 -16t-19 -6q-12 0 -23.5 10t-20.5 24t-14.5 30.5t-5.5 30.5v46z" />
    <glyph glyph-name="quotedbl" unicode="&#x22;" horiz-adv-x="318" 
d="M17 638h129v-46q0 -14 -5.5 -41t-14.5 -54t-21 -47t-24 -20t-23.5 20t-20.5 47t-14.5 54t-5.5 41v46zM168 638h129v-46q0 -14 -5.5 -41t-14.5 -54t-21 -47t-24 -20t-23.5 20t-20.5 47t-14.5 54t-5.5 41v46z" />
    <glyph glyph-name="paragraph" unicode="&#xb6;" horiz-adv-x="433" 
d="M323 606h-68v-771h-98q9 11 17 23q7 11 12.5 24.5t5.5 27.5v391q-43 0 -75.5 16t-54 42t-32.5 59t-11 68t11 68.5t32.5 59.5t54 42t76.5 16h230q-23 -21 -38.5 -51t-15.5 -56q0 -15 0.5 -52.5t0.5 -89.5t1 -115.5t1 -131.5t0.5 -136t0.5 -130q0 -14 8.5 -27.5t19.5 -24.5
q12 -12 28 -23h-106v771z" />
    <glyph glyph-name="bar" unicode="|" horiz-adv-x="211" 
d="M84 -20h-70v50l30 -30h35v576l25 123l25 -123v-576h35l30 30v-50h-70v-122q10 -10 10 -22t-9 -21q-8 -8 -21 -8q-14 0 -21 8q-9 9 -9 21t10 22v122z" />
    <glyph glyph-name="bullet" unicode="&#x2022;" horiz-adv-x="296" 
d="M7 304q0 40 21 72.5t56 48.5q2 1 2 4q0 7 -8 19.5t-8 25.5q0 11 12.5 19t55.5 9h6q41 0 54.5 -8.5t13.5 -19.5q0 -13 -8 -25.5t-8 -19.5q0 -3 3 -4q37 -17 55.5 -50t18.5 -71q0 -27 -10.5 -51.5t-28.5 -42.5t-42.5 -28.5t-51.5 -10.5t-51.5 10.5t-42.5 28.5t-28.5 42.5
t-10.5 51.5zM45 304q0 -20 7.5 -37t20.5 -30t30 -20.5t37 -7.5q19 0 36.5 7.5t30.5 20.5t20.5 30t7.5 37q0 19 -7.5 36.5t-20.5 30.5t-30.5 20.5t-36.5 7.5q-20 0 -37 -7.5t-30 -20.5t-20.5 -30.5t-7.5 -36.5zM103 443q0 9 10 15t21.5 10.5t21.5 7t10 4.5q0 4 -13.5 6.5
t-24.5 2.5t-26 -1.5t-15 -11.5t7.5 -21.5t8.5 -11.5zM119 427q1 0 6 0.5t7 0.5l49 -1l13 32q-2 -3 -12.5 -8.5t-22.5 -10.5t-23.5 -9t-16.5 -4zM131 423q-31 0 -53 -10t-36 -27t-20.5 -38.5t-6.5 -43.5q8 34 17.5 54.5t23 32.5t31.5 18.5t44 13.5zM134 199q55 0 83.5 30.5
t28.5 69.5q0 5 -0.5 9t-1.5 9q-2 -30 -10.5 -50.5t-22 -34t-33 -21.5t-44.5 -12z" />
    <glyph glyph-name="equal" unicode="=" horiz-adv-x="475" 
d="M353 308l-41 32l145 -40l-145 -40l42 32h-246l-28 -22h-16l17 20l-23 -20h-14l15 20l-21 -20h-17l25 30l-25 31h16l21 -21l-14 21h14l23 -21l-17 20h15l29 -22h245zM370 425l29 22h15l-17 -20l23 21h14l-14 -21l21 21h16l-25 -31l25 -30h-17l-21 20l15 -20h-14l-23 20
l17 -20h-16l-28 22h-246l42 -32l-145 40l145 40l-41 -32h245z" />
    <glyph glyph-name="hyphen" unicode="-" horiz-adv-x="439" 
d="M332 308l-41 32l145 -40l-145 -40l42 32h-246l-28 -22h-16l17 20l-23 -20h-14l15 20l-21 -20h-17l25 30l-25 31h16l21 -21l-14 21h14l23 -21l-17 20h15l29 -22h245z" />
    <glyph glyph-name="percent" unicode="%" horiz-adv-x="565" 
d="M287 375l-8 -6q-7 -5 -7 -11q0 -2 1 -3q6 -5 6 -14q0 -6 -4 -13t-13 -13l-42 -15q-14 -8 -19.5 -17t-5.5 -15q1 -4 4 -7.5t3 -7.5q-2 0 -4.5 0.5t-5.5 0.5q-4 0 -7 -3q-2 -1 -4.5 -8.5t-3.5 -5.5q-5 -8 -14 -28.5t-30 -48.5q-22 -29 -34.5 -46.5t-28.5 -19.5
q-7 0 -16.5 8.5t-17.5 19.5t-14.5 21.5t-7.5 14.5q-1 2 -1 6q0 7 7.5 17t33.5 30q32 26 56.5 43.5t35.5 25.5q11 7 15.5 16.5t11.5 23.5q5 12 15.5 31.5t27.5 32.5q-7 0 -10.5 2.5t-8.5 7.5q-3 2 -7 6q-2 2 -4 3h2q1 0 1.5 0.5t2.5 0.5q5 0 9 -4q4 4 6 5q1 0 2 -0.5t3 -0.5
l6 4q4 0 4 -1q0 -2 -4 -6q-5 -5 -5 -9q0 -2 2 -2q5 1 7 4t11 3q5 1 6.5 2t3.5 3q1 2 2 3q-3 2 -6 5q-2 2 -4.5 5.5t-3.5 6.5q5 -2 9 -3.5t6 -3.5q3 -2 5 -4q2 0 5 1.5t4 7.5l6 3t5 3l3 -1q7 5 27 19.5t44 31t47 33t35 26.5q13 10 27 21t26 21t21 17t12 10l7.5 9t6.5 3t12 -4
q16 -9 16 -25v-4q-2 -8 -7.5 -10.5l-16.5 -7.5q-5 -3 -10.5 -7t-11.5 -7l-14 -7v-1q0 -1 0.5 -1.5t0.5 -1.5q0 -4 -3 -11t-14 -16zM185 256q0 1 1 1q3 0 5 1q2 0 2 2q0 3 -2 11q-2 -3 -3 -6t-2 -5q-1 -3 -1 -4zM212 300q2 2 8 6q3 2 9 4l4 2q-1 0 -2 1q-2 2 -2 4q-2 2 -2 5
v3l-2 -2q-1 -1 -1.5 -3t-2.5 -4q-5 -5 -8 -11l-4 -8zM231 319q4 -6 12 -6t17 6q13 9 13 21l-1 6q-3 7 -10 7q-4 0 -10 -6q-3 -3 -5 -6q0 -2 1 -4q1 -3 5 -6t3 -3q-6 0 -12 8q0 3 -1 3q-2 0 -3 -2q-5 -5 -7.5 -8t-2.5 -6t1 -4zM171 651l49 -77l-38 -25q-13 -10 -31 -16
t-35 -6q-24 0 -34 12q-3 4 -3 10q0 8 5 19t13 21.5t18 20t21 15.5zM360 133l-49 77l38 25q13 11 31.5 17t35.5 6q22 0 33 -12q3 -5 3 -11q0 -9 -5 -19.5t-13 -21.5t-18.5 -20t-20.5 -15z" />
    <glyph glyph-name="underscore" unicode="_" horiz-adv-x="709" 
d="M363 -156q-7 1 -11 0q-10 -2 -10 -9q1 -7 -6 -16t-23 -9q-7 0 -11 1.5t-8 3.5t-9 3.5t-13 1.5q-16 0 -24.5 -1t-11.5 -9q-5 -5 -3 -9.5t0 -4.5q-2 -2 -4.5 3.5t-7.5 4.5q-6 -2 -10.5 -7.5t-3.5 1.5q-9 -5 -27 -15.5t-51 -21.5q-32 -10 -51.5 -16.5t-32.5 -1.5
q-6 3 -8.5 14.5t-3 24.5t0 24t2.5 14q2 6 4.5 10t8.5 7t17 4.5t31 3.5q38 2 66.5 1.5t41.5 0.5q12 0 20.5 5t20.5 12t30.5 15.5t36.5 10.5q-5 3 -5.5 7.5t-1.5 9.5l-4 12q2 -2 5 -3q2 -2 3.5 -2.5t2.5 -2.5h6l4 -4q5 0 7 -1q6 -3 -5 -5q-3 -2 -7 -3t0 -4q4 -2 6.5 -1
t10.5 -2q4 -2 6.5 -2h4.5t3 1q-2 3 -3 7q-1 3 -1.5 7t1.5 7q6 -8 7 -14q1 -4 1 -6q2 -1 5 -2q5 -2 8 1q2 1 2 2.5t0 -0.5q2 0 6 -2t6 -1l1 2l1 -1h29.5t50 0.5t54.5 1t42 1.5t31.5 1.5t31 1t25.5 1t16 1.5q9 3 13.5 4t9.5 -11q5 -11 3.5 -18t-6.5 -12q-5 -7 -11.5 -5.5
t-17.5 2.5q-5 0 -11 0.5t-12 1.5l-14 2q-1 -4 -5 -7q-7 -7 -25 -8zM224 -193q1 0 1.5 -0.5t1.5 -0.5q2 -2 3.5 1.5t4.5 6.5l-10 -5q-2 -1 -3 -2h2zM267 -173q2 0 4 -0.5t4 0.5q2 -1 4.5 -1t4.5 -1t4 -1v3q0 2 -0.5 3t0.5 3q0 2 2 2h1h-11q-3 0 -11 -4q-4 -2 -7 -4h5z
M291 -167q0 -10 6 -13t16 -5q9 -1 15.5 3t8.5 9q2 6 -1 11t-20 2q0 1 -1 -1t-1 -4q-1 -2 1.5 -8t1.5 -7q-2 0 -4.5 7t-2.5 9q2 2 1 3q-1 0 -1 1t-2 0q-17 -3 -17 -7z" />
    <glyph glyph-name="Scaron" unicode="&#x160;" horiz-adv-x="475" 
d="M239 728q22 0 40.5 6.5t32.5 14.5q16 9 29 21q-12 -20 -29 -35q-14 -14 -34 -24.5t-45 -10.5q-21 0 -39 8t-31.5 18.5t-21.5 22t-9 17.5q0 1 -1 3t0 1q6 -7 16.5 -14t24.5 -13t29.5 -10t31.5 -5h6zM117 646q1 1 1 2t1 2q0 1 1 2q0 6 -4.5 11.5t-11.5 12.5h273
q-11 -9 -11 -23q0 -2 4 -12l104 -201h-137q5 6 10 11t5 9l-1 4q-13 38 -27.5 60t-31.5 33t-36.5 13.5t-41.5 2.5h-4l-49 -118l316 -180l-118 -243l-2 -4q-1 -1 -1 -2q0 -6 4.5 -11.5t11.5 -12.5h-273q11 9 11 23q0 2 -4 12l-104 201h137q-5 -6 -10 -11t-5 -9l1 -4
q13 -38 27.5 -60t31.5 -33t36.5 -13.5t41.5 -2.5h4l49 118l-316 180z" />
    <glyph glyph-name="Euro" unicode="&#x20ac;" horiz-adv-x="587" 
d="M408 525l-79 45l-84 -45v-364l84 -55l79 55l100 -38l-179 -150l-203 150v449l203 130l179 -130zM458 308l-41 32l145 -40l-145 -40l42 32h-408l-28 -22h-16l17 20l-23 -20h-14l15 20l-21 -20h-17l25 30l-25 31h16l21 -21l-14 21h14l23 -21l-17 20h15l29 -22h407zM475 425
l29 22h15l-17 -20l23 21h14l-14 -21l21 21h16l-25 -31l25 -30h-17l-21 20l15 -20h-14l-23 20l17 -20h-16l-28 22h-408l42 -32l-145 40l145 40l-41 -32h407z" />
    <glyph glyph-name="yen" unicode="&#xa5;" horiz-adv-x="487" 
d="M185 272l-150 148v206q-4 17 -10.5 30.5t-13 23t-10.5 14t-3 4.5h215q-8 -5 -13 -13q-5 -7 -9 -16.5t-4 -22.5v-225l72 -75l69 75v231q0 17 -4 27t-19 19h204q-16 -10 -27 -21q-11 -10 -19 -21.5t-8 -23.5v-252l-126 -140v-177q0 -15 5 -27t12 -20q8 -10 18 -16h-224
q12 8 22 18q8 8 15.5 19t7.5 24v211zM389 116l-41 32l145 -40l-145 -40l42 32h-273l-28 -22h-16l17 20l-23 -20h-14l15 20l-21 -20h-17l25 30l-25 31h16l21 -21l-14 21h14l23 -21l-17 20h15l29 -22h272zM406 233l29 22h15l-17 -20l23 21h14l-14 -21l21 21h16l-25 -31l25 -30
h-17l-21 20l15 -20h-14l-23 20l17 -20h-16l-28 22h-273l42 -32l-145 40l145 40l-41 -32h272z" />
    <glyph glyph-name="glyph102" horiz-adv-x="483" 
 />
    <glyph glyph-name="sterling" unicode="&#xa3;" horiz-adv-x="592" 
d="M378 335l-41 32l145 -40l-145 -40l42 32h-285l-28 -22h-16l17 20l-23 -20h-14l15 20l-21 -20h-17l25 30l-25 31h16l21 -21l-14 21h14l23 -21l-17 20h15l29 -22h284zM312 643q-25 -26 -39 -43t-20.5 -32t-8 -30.5t-1.5 -39.5q0 -34 4.5 -53.5t11 -35t14.5 -31t14.5 -41
t11 -65t4.5 -103.5h4q37 0 63 -11.5t49 -25t46 -25t54 -11.5q17 0 33 6t32 22v-173q-17 -8 -40 -8q-32 0 -69 14.5t-77 32.5t-83.5 32.5t-88.5 14.5q-39 0 -79 -15t-81 -53l-50 159q28 17 48.5 25.5t35 12.5t23.5 6.5t14.5 9.5t7.5 19.5t2 37.5q0 46 -4.5 71t-11 39
t-14.5 23t-14.5 23t-11 39.5t-4.5 72.5q0 50 11 80.5t31 55.5q23 10 45.5 23t45.5 25t46 20.5t46 8.5q24 0 47 -8.5t45.5 -20.5t45 -25t45.5 -23q20 -25 31 -59.5t11 -85.5h-156q0 24 -1.5 40t-8 30.5t-20.5 31.5t-39 43z" />
    <glyph glyph-name="cent" unicode="&#xa2;" horiz-adv-x="368" 
d="M260 97q-15 14 -41.5 40.5t-80.5 53.5q-23 12 -44 20.5t-36.5 14.5t-24 10t-8.5 6q1 4 17 8t26 17q10 12 12 34.5t2 45.5v34q0 13 -0.5 31t-2.5 35t-7.5 31t-14.5 19q-8 5 -16.5 6.5t-16.5 1.5t-16 -2q-4 -1 -6 -1q28 24 57 44q25 17 54.5 32t56.5 17q6 1 12 1h11
q45 0 74.5 -15t42.5 -43q13 -31 13 -59q0 -19 -5 -36t-16 -28q-13 -14 -28.5 -23.5t-35.5 -9.5q-10 0 -22.5 3.5t-22.5 8.5q24 2 42 9t30 16.5t18 19.5t6 19q0 10 -3 22t-9.5 23t-16.5 19.5t-24 11.5q-15 3 -32 3q-26 0 -49.5 -10.5t-30.5 -40.5q-5 -20 -7 -56.5t-2 -73.5
q0 -35 2 -63.5t7 -36.5q8 -14 23.5 -28.5t36.5 -14.5q10 0 19 4q17 7 27.5 24t17.5 35q8 21 12 45v-224zM154 635q-1 2 -2 6q-2 8 -2 17q0 21 20 21q10 0 15.5 -6.5t5.5 -14.5q0 -7 -4 -15q-2 -4 -3 -7l31 15v-57l-24 5l-24 -632q-3 20 -5 38.5t-3.5 42.5t-2 58t-1.5 84
q3 27 4.5 68.5t1.5 89.5q0 35 -0.5 71t-2 69t-3.5 61.5t-4 48.5l-27 -4l3 53zM254 599l48 26l-11 -42l-77 -83zM221 484l117 21l77 -13l-77 -19zM208 481l84 -90l9 -64l-48 41z" />
    <glyph glyph-name="multiply" unicode="&#xd7;" horiz-adv-x="415" 
d="M349 154h-84l-61 97l-62 -97h-84v85l97 61l-97 62v83h84l62 -96l61 96h85v-83l-97 -62l97 -61z" />
    <glyph glyph-name="dagger" unicode="&#x2020;" horiz-adv-x="436" 
d="M176 670q-10 10 -10 22t9 21q7 8 21 8q13 0 21 -8q9 -9 9 -21t-10 -22v-122h70v-50l-30 30h-35v-576l-25 -123l-25 123v576h-35l-30 -30v50h70v122zM331 277l-41 32l145 -40l-145 -40l42 32h-246l-28 -22h-16l17 20l-23 -20h-14l15 20l-21 -20h-17l25 30l-25 31h16
l21 -21l-14 21h14l23 -21l-17 20h15l29 -22h245z" />
    <glyph glyph-name="daggerdbl" unicode="&#x2021;" horiz-adv-x="203" 
d="M127 528v-528h35l30 30v-50h-70v-122q10 -10 10 -22t-9 -21q-8 -8 -21 -8q-14 0 -21 8q-9 9 -9 21t10 22v122h-70v50l30 -30h35v528h-35l-30 -30v50h70v122q-10 10 -10 22t9 21q7 8 21 8q13 0 21 -8q9 -9 9 -21t-10 -22v-122h70v-50l-30 30h-35zM216 153l-41 32l145 -40
l-145 -40l42 32h-246l-28 -22h-16l17 20l-23 -20h-14l15 20l-21 -20h-17l25 30l-25 31h16l21 -21l-14 21h14l23 -21l-17 20h15l29 -22h245zM233 388l29 22h15l-17 -20l23 21h14l-14 -21l21 21h16l-25 -31l25 -30h-17l-21 20l15 -20h-14l-23 20l17 -20h-16l-28 22h-246
l42 -32l-145 40l145 40l-41 -32h245z" />
    <glyph glyph-name="currency" unicode="&#xa4;" horiz-adv-x="727" 
d="M256 223q22 -22 49.5 -33t56 -11t56 11t49.5 33t32.5 49.5t10.5 56t-10.5 56t-32.5 49.5t-49.5 32.5t-56 10.5t-56 -10.5t-49.5 -32.5t-33 -49.5t-11 -56t11 -56t33 -49.5zM545 145l-38 -180l-104 191q-42 -11 -83 0l-104 -191l-38 180l-178 35l189 106q-5 20 -5 41.5
t5 41.5l-190 104l180 38l35 178l105 -188q42 9 85 0l105 188l35 -178l180 -38l-190 -104q5 -20 5 -41.5t-5 -41.5l189 -106z" />
    <glyph glyph-name="section" unicode="&#xa7;" horiz-adv-x="487" 
d="M148 703q1 1 1 2t1 2q0 1 1 2q0 5 -4.5 10.5t-10.5 11.5h259q-10 -7 -10 -21q0 -2 1 -5t2 -7l99 -191h-130q5 6 9.5 10.5t4.5 8.5l-1 4q-12 36 -26 57t-30.5 31.5t-35.5 13t-41 2.5l-47 -113l300 -171l-112 -230q-3 -5 -3 -9l78 -44l-112 -231q-2 -2 -2 -3q-1 -1 -1 -2
q0 -6 4.5 -11t10.5 -12h-259q10 9 10 22q0 3 -3 11l-99 191h130q-5 -5 -9.5 -10t-4.5 -9l1 -4q12 -36 26 -56.5t30 -31t34.5 -13t39.5 -2.5h4l46 112l-300 171l112 231q3 4 3 7l-78 45zM165 268q11 -26 22.5 -41.5t25.5 -23.5l4 -2q15 -8 32 -10t37 -2h4l34 82
q-10 24 -21 38.5t-23 23.5l-12 6q-14 7 -30.5 9t-34.5 2h-4z" />
    <glyph glyph-name="bracketleft" unicode="[" horiz-adv-x="584" 
d="M220 446q0 6 9 20.5t21 29.5t24.5 26.5t19.5 11.5q5 0 17 -11t24.5 -26t22 -29.5t9.5 -21.5q0 -9 -9.5 -23.5t-21.5 -28.5t-24 -24.5t-18 -10.5q-8 0 -20.5 11t-24.5 25.5t-20.5 29t-8.5 21.5zM202 169q10 2 12 12t0.5 22.5t-5 24t-6.5 17.5q-6 11 -15.5 21.5t-16.5 15.5
q-6 5 -16 6.5t-15 1.5l-4 -1q-9 -4 -16.5 -15t-12.5 -11q-7 1 -23.5 18.5t-33 41.5t-29 48t-12.5 39q0 10 7 15l3 1q9 0 20 -10.5t17 -19.5q8 -9 21.5 -17t22.5 -8q6 0 9 3t3 8q0 10 -8 22.5t-14 23.5q-4 7 -11.5 10.5t-15.5 6.5t-14 7t-7 13q0 9 11.5 25t25.5 32
q16 18 37 40q3 21 7 38q3 14 7 26.5t9 14.5q1 2 4 2q5 0 13.5 -3t16.5 -7l18 -9q23 20 43 36q17 14 33.5 25.5t24.5 11.5t24.5 -11t34.5 -25l45 -36q7 5 16 9q7 3 15.5 6t16.5 3q4 0 10 -4q5 -5 8.5 -17t5.5 -25q2 -15 2 -32q21 -22 38 -41q14 -17 26 -33t12 -25
q-5 -15 -18 -21.5t-22 -14.5q-8 -6 -19 -18.5t-11 -26.5q0 -5 3 -9q1 -2 5 -2q6 0 17 7.5t24 16.5t25.5 16.5t20.5 7.5q3 0 5 -2q3 -3 3 -6q0 -12 -12.5 -36t-29 -48.5t-32 -43.5t-22.5 -20q-6 0 -17.5 11t-26.5 11q-5 0 -8 -1q-17 -6 -28 -18t-17.5 -26t-9 -28.5
t-2.5 -25.5q0 -3 0.5 -6t0.5 -5q3 -7 11 -7q5 0 10.5 1t11.5 1q8 0 12 -7q0 -2 0.5 -2.5t0.5 -2.5q0 -8 -11 -31t-25 -49q-14 -29 -29 -53t-25 -24q-10 1 -13 22t-3 53q0 25 1 50.5t2.5 49t4.5 43t7 33.5q7 22 20 42.5t25.5 40.5t21.5 40.5t9 43.5v6q-2 31 -16 53t-32 36
t-36 21t-27 7q-10 0 -23.5 -3.5t-28 -11.5t-28.5 -22.5t-23 -35.5q-10 -20 -10 -42q0 -32 13 -57t20 -38l14 -23q25 -34 35 -80q2 -9 4 -29t3 -42.5t1.5 -43.5t0.5 -32q-1 -11 -1.5 -24.5t-2 -25.5t-4 -21t-7.5 -10t-14.5 11.5t-18.5 28t-16 28.5l-7 13q-1 -1 -7 12t-14 24
q-7 11 -12.5 27t-2.5 24q2 4 6.5 4t10 -1.5t11 -3.5t8.5 -2z" />
    <glyph glyph-name="bracketright" unicode="]" horiz-adv-x="662" 
d="M334 68q-2 0 -7.5 4t-11.5 8.5t-12.5 9t-9.5 7.5q-7 5 -17 19.5t-15 20.5t-6.5 17t-1.5 16q0 6 -6 6q-4 0 -4 -5q0 -9 -10 -17q-7 -6 -7 -18v-4q1 -8 8 -10.5t12 -2.5q0 2 -2 4.5t-4 4.5q-2 4 -2 7q0 7 7 7t9 -9t7 -17t12 -15.5t11 -12.5q2 -4 2 -5q0 -5 -3 -9t-3 -9
q0 -6 3 -11.5t8 -5.5q2 2 2 3q0 2 -1.5 6t-2.5 9q0 6 11 6q5 0 8 -1q7 -2 11.5 -6.5t4.5 -7.5t-8 -11.5t-8 -13.5q0 -3 2 -3q5 0 11 9q2 4 5.5 5.5t6.5 3.5q4 1 6 2q3 -1 7 -2q3 -2 6.5 -3.5t6.5 -5.5q6 -9 11 -9q2 0 2 3q0 5 -8 13.5t-8 11.5t4.5 7.5t11.5 6.5q3 1 8 1
q11 0 11 -7q-1 -4 -2.5 -8t-1.5 -6t3 -3q4 0 7 5.5t3 11.5q0 5 -3 9t-3 9q0 1 2 5q4 5 11 12.5t12 15.5t7 17t9 9t7 -7q0 -3 -2 -7q-3 -3 -3 -9l3 -3q5 0 9 4.5t5 11.5v4q0 12 -7 18q-10 8 -10 17q0 5 -4 5q-6 0 -6 -6q0 -5 -1.5 -16t-6.5 -17t-15 -20.5t-17 -19.5
q-3 -3 -9 -7.5t-12.5 -9t-12 -8.5t-7.5 -4h-12zM343 705q9 0 13.5 -4.5t6.5 -10t3 -11t3 -7.5q1 -1 4 -1q5 0 15.5 4.5t20.5 6.5q5 1 9 1.5t8 0.5q15 0 23 -9q2 -3 2 -8q0 -3 -1 -5l-2 -4l-2 -4q6 1 12 1h10t8 1h6q8 0 19.5 -2.5t15.5 -10.5q5 -10 4 -16t1 -15t11 -10t11 -6
q0 -2 -4 -4q-2 -1 -3 -1h42q26 0 35.5 -11.5t11.5 -25.5q0 -2 0.5 -3.5t0.5 -3.5q0 -9 -6.5 -11.5t-21.5 -4.5q10 -9 18 -21t13 -25t8 -24.5t3 -18.5t-2.5 -12.5t-5.5 -10.5q-4 -5 -8 -11q5 -4 9 -9q9 -10 10 -29q0 -9 -4 -16.5t-9.5 -13.5t-10.5 -11.5t-7 -12.5
q-1 -2 -1 -6q0 -11 8 -20.5t10 -21.5v-5q0 -11 -7 -16t-24 -13q11 -12 11 -25q0 -18 -19 -31q-11 -8 -24 -8q-9 0 -15 2q-4 1 -5 3v-4q0 -5 -2 -10.5t-11 -6.5l-22 7q-8 -3 -14 -15.5t-6 -27.5t-5.5 -20.5t-13.5 -7.5q-1 -1 -4 -1q-7 0 -13 5t-14 5q-6 0 -14 -5
q-10 -6 -10.5 -21t-2.5 -25t-8.5 -11.5t-12.5 -6.5q-3 -2 -4 -6t-2.5 -8t-5 -7t-10.5 -3q-14 2 -20.5 11.5t-12.5 9.5t-12.5 -9.5t-23.5 -11.5q-6 0 -8.5 3t-4 7t-2.5 8t-4 6q-6 5 -12.5 6.5t-8.5 11.5t-2.5 25t-10.5 21q-8 5 -14 5q-8 0 -14 -5t-13 -5q-2 0 -4 1
q-8 2 -13.5 7.5t-5.5 20.5t-6 27.5t-14 15.5l-22 -7q-9 1 -11 6.5t-2 10.5v4q-3 -2 -6 -3t-6 -1.5t-8 -0.5q-13 0 -24 8q-19 13 -19 31q0 13 11 25q-17 8 -24 13t-7 16v5q2 12 10 21.5t8 20.5q0 4 -1 6q-2 7 -7.5 12.5t-10.5 12t-9 13.5t-4 17t3 16.5t7 11.5t9 9q-4 5 -8 11
q-3 5 -5.5 11t-2.5 14q0 7 3 18t8 23.5t12.5 24.5t18.5 21q-15 2 -21.5 4.5t-6.5 11.5q0 2 0.5 3.5t0.5 3.5q2 14 12 25.5t38 11.5h39q-2 0 -4 1q-3 1 -3 5q2 4 11 5t11 10t1 15t4 16q4 8 15.5 10.5t19.5 2.5h6q3 -1 8 -1h10t12 -1q-2 2 -3 4q-2 4 -2 9t2 8q7 9 23 9
q4 0 8 -0.5t9 -1.5q10 -2 20.5 -6.5t15.5 -4.5q3 0 4 1q4 4 5 10t3 11t6.5 8.5t13.5 3.5h6zM465 142q0 -4 -0.5 -8t-0.5 -9v-7q0 -9 4 -9q3 0 3 4.5t1 18.5t6 19.5t9 12.5t12 14.5t12 9.5q1 1 3 1q3 0 5.5 -3t7.5 -6q-2 8 -2 12q0 7 2 13.5t4 13.5v8l1 3q3 11 10 11
q1 0 1.5 -0.5t2.5 -0.5q6 -2 6 -11q0 -7 -3 -10q-3 -4 -6 -4.5t-3 -5.5q0 -3 3 -3t6.5 2.5t4.5 7.5q1 7 9 7l7 -1q5 -1 7 -8t2 -12t-7 -5.5t-6 -3.5q0 -3 3 -3q4 0 10 3q6 2 7.5 8.5t1.5 14.5q0 4 -4 7.5t-10 6.5t-12 5.5t-9 4.5q-3 1 -3 3t5 4t7 2q4 0 4 3t-5 3h-5
q-5 0 -6.5 3t-1.5 12q0 10 -6.5 20.5t-17.5 18.5q-5 3 -9 3q-8 0 -8 -6t11 -7q8 -1 10.5 -6t2.5 -13t-2 -18t-4 -21q-4 -20 -18 -40t-21 -31q-3 -6 -7 -6q-5 0 -9 7t-10 13q-8 8 -13.5 10t-13.5 5q-6 2 -10 2q-11 0 -12 -10q0 -8 10 -8q5 0 12 5q2 2 4 2q8 0 18 -13t10 -27
v-8zM213 150q0 14 10 27t18 13q2 0 4 -2q7 -5 12 -5q10 0 10 9q-2 9 -12 9q-4 0 -10 -2q-8 -3 -13.5 -5t-13.5 -10q-6 -6 -10 -13t-9 -7q-4 0 -7 6q-7 11 -21 31t-18 40q-2 11 -4 21t-2 18t2.5 13t10.5 6q11 1 11 7t-8 6q-5 0 -9 -3q-11 -8 -17.5 -18.5t-6.5 -20.5
q0 -9 -1.5 -12t-9.5 -3q-7 0 -7 -3t4 -3q2 0 7 -2t5 -4t-3 -3q-3 -2 -9 -4.5t-12 -5.5t-10 -6.5t-4 -7.5q0 -8 1.5 -14.5t7.5 -8.5q6 -3 10 -3q3 0 3 3q1 3 -6 3.5t-7 5.5t2 12t7 8l7 1q8 0 9 -7q1 -5 4.5 -7.5t6.5 -2.5t3 4t-3 4.5t-6 4.5q-3 3 -3 10q0 9 6 11q2 0 2.5 0.5
t1.5 0.5q7 0 10 -11q1 -2 1 -3t1 -3q2 -5 3 -11.5t1 -16.5v-7.5t-1 -8.5q5 3 7.5 6t5.5 3q2 0 3 -1q4 -2 12 -9.5t12 -14.5t9 -12.5t6 -19.5t1 -18.5t3 -4.5q4 0 4 9v7q-1 5 -1 9v8v8zM498 326q0 -1 8 1.5t17 2.5q10 0 15 -5q7 -8 8 -9t3 -9q0 -2 2 -8q4 -15 14 -29.5
t20 -16.5q2 0 4 -0.5t4 -0.5q13 0 14 13q0 8 -10 12t-10 9t4.5 17t4.5 30q-1 12 -2.5 26t-1.5 26q0 7 2 15q1 6 5 9.5l8 7t7 8.5t3 13t-3 19t-7.5 22t-10.5 20.5t-12 14.5q-7 5 -7 13q0 4 1 7.5t1 6.5q0 4 -5 8t-10 4q-8 0 -13 -5.5t-7 -7.5q-4 -4 -10 -4q-5 0 -7 -3
q11 -2 25.5 -10t21.5 -21q5 -10 8 -14t3 -8q0 -3 -1 -5q-1 -4 -4 -4l-6 1q-2 0 -4 -1q-3 -2 -3 -6q0 -2 -5 -3q-7 0 -20.5 3.5t-21.5 3.5q-5 0 -5 -3q0 -5 11.5 -8.5t20.5 -11.5q10 -9 17.5 -17.5t9.5 -33.5q1 -16 2.5 -30t1.5 -25q0 -13 -4 -16q-1 -1 -3 -1q-6 0 -15.5 8
t-18.5 8h-13q-13 0 -20 -6q-6 -6 -6 -7zM180 325q0 2 -6 8q-7 6 -20 6h-13q-9 0 -18.5 -8t-15.5 -8q-2 0 -3 1q-4 3 -4 16q0 11 1.5 25t2.5 30q1 25 9 33.5t18 17.5q9 8 20.5 11.5t11.5 9.5q0 2 -5 2q-8 0 -21.5 -3.5t-22.5 -3.5q-3 1 -3 5q0 2 -3 4q-2 1 -4 1l-6 -1
q-3 0 -4 4q-1 2 -1 5q0 4 3 8t8 14q7 13 21.5 21t25.5 10q-3 5 -7.5 3.5t-9.5 3.5q-3 2 -7.5 8t-11.5 6q-4 0 -11 -5q-5 -4 -5 -9l2 -13q0 -7 -7 -13q-6 -5 -12 -14.5t-10.5 -20.5t-7.5 -22t-3 -19t3 -13t7 -8.5t7.5 -7t5.5 -9.5q2 -8 2 -15q0 -12 -1.5 -26.5t-2.5 -28.5
q0 -16 4.5 -27.5t4.5 -16.5t-10 -9.5t-10 -12.5q1 -12 14 -12q2 0 4 0.5t4 0.5q10 2 20 16.5t14 29.5q0 2 0.5 3t0.5 2q1 4 2 7.5t6 8.5q1 1 1.5 2t2.5 3q5 5 15 5q5 0 9 -1l8 -2zM339 681l-5 -10t-3.5 -8t-3.5 -6q-5 -7 -15 -7q-5 0 -8 1q-9 2 -12.5 5t-14.5 6q-4 1 -7 1.5
t-6 0.5t-4.5 -0.5t-3.5 -0.5q-2 -1 -3 -1q5 -1 9 -3t9 -3.5t12 -3.5q13 -4 13 -15q0 -7 -5 -12q-1 -2 -6 -2q-7 0 -18.5 4t-24.5 6q-18 3 -28 3q-11 0 -20 -4q3 1 8 1q11 0 19 -5.5t11 -11.5q0 -5 -10 -5q-6 0 -9 1h-4q-5 0 -10.5 -1t-10.5 -3q-6 -2 -11 -3h18q8 0 18.5 -4
t10.5 -9q-1 -2 -6 -2q-6 0 -13.5 1.5t-14.5 3.5h-5q-5 0 -9 -2.5t-8 -4.5l-8 -6q3 0 7 1q3 0 7 0.5t8 0.5h5q5 0 5 -4q0 -10 -15 -15q-3 -1 -12 -1q-14 0 -31.5 3t-28.5 5h-4q-6 0 -11.5 -3t-9 -6t-5.5 -5.5l-2 -2.5q3 2 7 4q3 2 8 3.5t11 1.5q4 0 12 -2q15 -4 31 -7t30 -3
h5q12 1 21 5t9 15q0 2 -2 10q10 -1 13.5 -4.5t13.5 -3.5h5q25 3 25 18l-1 4q-2 5 -4.5 11.5t-2.5 7.5q2 2 11 2q5 0 11 -1t11 -3q4 -2 10.5 -4.5t13.5 -4.5q8 -3 16 -5q-1 0 -2 2t-1 8l1 6q2 8 3 13.5t9 5.5h4q8 0 9 -5.5t3 -13.5l1 -6q0 -4 -2 -8l-1 -2q8 2 16 5
q7 2 13.5 4.5t10.5 4.5q2 1 9.5 3t14.5 2q3 0 6.5 -2t3.5 -3q0 -2 -3 -6t-5 -11l-1 -4q0 -15 25 -18h5q10 0 13.5 3.5t13.5 4.5q-2 -8 -2 -10q0 -11 9 -15t21 -5h5q14 0 30 3t31 7q8 2 12 2q6 0 10.5 -1.5t8.5 -3.5t7 -4l-2 2.5t-5.5 5.5t-9 6t-11.5 3h-4q-11 -2 -28.5 -5
t-31.5 -3q-9 0 -12 1q-15 5 -15 15q0 4 5 4h5q4 0 8 -0.5t7 -0.5q4 -1 7 -1l-8 6q-4 2 -8 4.5t-9 2.5h-5q-7 -2 -14.5 -3.5t-13.5 -1.5q-5 0 -6 3q0 4 11 8t20 4h16q-7 1 -12 3t-10 3t-10 1h-4q-3 -1 -9 -1q-3 0 -6 1t-3 6q2 5 10 10t19 5q5 0 8 -1q-9 4 -20 4q-10 0 -28 -3
q-13 -2 -24.5 -6t-18.5 -4q-5 0 -6 2q-5 5 -5 12q0 11 13 15q6 2 11.5 3.5t9.5 3.5t9 3q-1 0 -3 1q-2 0 -4 0.5t-4 0.5q-3 0 -6 -0.5t-7 -1.5q-11 -3 -14.5 -6t-12.5 -5q-3 -1 -8 -1q-10 0 -15 7q-4 4 -8 14q-3 4 -4 10zM616 360q0 1 2 6t2 11q0 3 -2 9q-1 4 -5 4
q-3 0 -5.5 -3t-2.5 -6t2 -4q6 -3 7.5 -10.5t1.5 -6.5zM62 360q0 -1 1.5 6.5t7.5 10.5q2 1 2 4q0 8 -8 8q-4 0 -5 -3q-2 -6 -2 -9q0 -6 2 -11t2 -6zM339 491q11 0 18 5t13 12q3 3 3 6q0 5 -4 8.5t-6 6.5q-2 2 -2 7l1 13q0 6 -5 6q-3 0 -7 -4q-2 -2 -2 -8q0 -7 1.5 -15
t1.5 -11q0 -4 -6 -6q-3 -1 -6 -1t-6 1q-6 2 -6 6q0 3 1.5 11t1.5 15q0 6 -2 8q-4 4 -7 4q-5 0 -5 -6l1 -13q0 -5 -2 -7q-2 -3 -6 -6.5t-4 -8.5q0 -3 3 -6q6 -7 13 -12t18 -5zM366 459q0 -3 1 -7q1 -3 1.5 -6.5t2.5 -8.5q3 -9 8.5 -25t7.5 -30q0 -7 -5.5 -14.5t-12.5 -15.5
t-12.5 -16.5t-6.5 -15.5v-4q0 -5 1 -11.5t4.5 -12t9.5 -9.5t16 -4q11 0 20 5t16 12t12.5 15t9.5 14q6 10 6 19q0 11 -7 27q-5 12 -16.5 16.5t-14.5 11.5q-1 2 -1.5 4t-0.5 5q0 7 2.5 14.5t5.5 12.5q5 6 13 6.5t14 3.5t8.5 4.5t8.5 12.5q3 6 3 10q0 8 -5 15.5t-10 17.5
q-3 6 -5 9t-4.5 4t-5.5 1.5l-9 1.5q-5 0 -12 -4t-13.5 -9t-12.5 -10t-9 -7q-7 -4 -7 -12q0 -6 2 -6q1 0 6.5 3t13 7t15 8.5t11.5 7.5q8 4 11 4q8 0 8 -7q0 -3 -1 -4q-3 -8 -3 -13t-2 -16q-2 -8 -8 -12t-14 -4q-5 0 -11 2q-5 2 -9.5 3.5t-9.5 3.5t-10 3zM312 459
q-5 -1 -10 -3t-9.5 -3.5t-9.5 -3.5q-6 -2 -11 -2q-8 0 -14 4t-8 12q-2 11 -2 16t-3 13q-1 2 -1 4q0 7 8 7q3 0 11 -4q4 -3 11.5 -7.5t15 -8.5t13 -7t6.5 -3q2 0 2 6q0 8 -7 12q-3 2 -9 7t-13 10t-14 9t-13 4q-11 -2 -13 -2.5t-9 -13.5q-5 -10 -10 -17.5t-5 -15.5q0 -4 3 -10
q6 -11 8.5 -12.5t8.5 -4.5t14 -3.5t13 -6.5q3 -5 5.5 -12.5t2.5 -14.5q0 -3 -0.5 -5t-1.5 -4q-3 -7 -14.5 -11.5t-16.5 -16.5q-7 -16 -7 -27q0 -9 6 -19q4 -6 9.5 -14t12.5 -15t16 -12t20 -5q19 0 25 13t6 24v4q-1 7 -7 15.5t-12.5 16.5t-12 16t-5.5 15q2 14 7.5 29.5
t8.5 24.5q2 5 2.5 8.5t1.5 6.5q1 4 1 7zM339 189q0 1 3.5 11t10.5 11q5 0 7 -5.5t5 -14.5q0 14 5.5 22.5t10.5 18.5q4 8 7 12.5t3 8.5t-2 6q-3 3 -9 3l-19 -2q-4 0 -8 2q-6 2 -10 12q-2 4 -4 9q-2 -5 -4 -9q-4 -9 -10 -12q-2 -1 -8 -1l-19 1q-6 0 -9 -3q-2 -2 -2 -6t3 -8.5
t7 -12.5q5 -10 10.5 -18.5t5.5 -22.5q3 9 5 14.5t8 5.5q6 -1 9.5 -11t3.5 -11zM339 332q2 3 5 7q6 8 12 13t11.5 13t5.5 16q-2 5 -8.5 7t-11.5 2h-4q-3 0 -3 3q0 4 6 6q5 1 11 1.5t6 6.5q-2 6 -3.5 12.5t-3.5 12.5q-2 3 -3.5 6t-3.5 5l-4 6q1 -6 3 -11q1 -5 2 -9.5t1 -8.5
q0 -5 -1 -6q-2 -3 -5.5 -3.5t-6.5 -0.5h-10q-3 0 -6.5 0.5t-5.5 3.5q-1 1 -1 6q0 9 3 18q1 5 3 11l-4 -6q-2 -2 -4 -5t-3 -6q-2 -6 -3.5 -12.5t-3.5 -14.5q0 -5 6 -5t11 -1q7 -1 7 -6q0 -3 -4 -3h-4q-5 0 -11.5 -2t-8.5 -9q0 -7 5.5 -14.5t11.5 -12.5l6.5 -6.5t5.5 -6.5
q3 -4 5 -7z" />
    <glyph glyph-name="oe" unicode="&#x153;" horiz-adv-x="550" 
d="M230 0l-50 -56l-165 162v358l165 140l99 -97q25 17 50.5 35t46.5 32q25 17 47 32l119 -162l-52 -37l-65 65l-42 -39v-116h110v-108l-23 20h-87v-133q0 -3 3 -3q34 0 57.5 2t40.5 7.5t30 16t27 27.5v-146h-311zM237 143v274l-57 44l-88 -44v-274l88 -54z" />
    <glyph glyph-name="perthousand" unicode="&#x2030;" horiz-adv-x="833" 
 />
    <glyph glyph-name="OE" unicode="&#x152;" horiz-adv-x="665" 
d="M328 0l-89 -85l-205 171v519l205 149l65 -54h337l1 -218l-41 115h-142v-230h128v-128l-26 26h-102v-154q0 -3 3 -3q40 0 66.5 2t46 7.5t34.5 16t32 27.5v-161h-313zM316 131v419l-77 52l-81 -52v-419l81 -62z" />
    <glyph glyph-name="ordfeminine" unicode="&#xaa;" horiz-adv-x="339" 
d="M146.478 300h-20.3564t-42.3818 0.666992l-61.4023 1.33496q6.00684 4.66992 13.3486 15.0127q7.3418 10.3418 8.67676 23.6865q0.666992 4.00391 3.00293 16.6816q2.33594 12.6768 5.67285 31.0264q3.33691 18.3486 7.67578 40.3672q4.33789 22.0186 8.34277 44.7051
q10.0107 52.7119 22.6924 117.434l-21.3574 29.3584l136.153 80.7354q-2.00195 -10.0088 -3.33691 -20.0166q-1.33496 -9.3418 -1.00098 -19.6836q0.333008 -10.3418 3.00293 -19.6836q3.33691 -10.0088 9.34375 -33.3613q6.00684 -23.3535 13.3486 -48.041
q7.3418 -28.6914 17.3525 -62.0537l50.0566 14.6797l9.34375 -42.7031l-45.3838 -19.3506q6.67383 -33.3613 14.6826 -62.7197q6.6748 -25.3545 15.3506 -50.376q8.67676 -25.0215 18.0205 -37.6992h-122.806q5.33984 6.00488 10.0117 13.3447
q4.00488 6.00488 7.3418 13.0107t3.33691 14.3457t-2.00195 21.3516q-2.00293 14.0117 -4.00488 28.0244q-2.66992 16.6807 -6.00684 35.3633q-24.6943 -8.67383 -43.3818 -21.3516q-16.0186 -11.3428 -28.3652 -27.6904q-12.3477 -16.3477 -9.01074 -39.0332
q16.6855 -21.3516 25.6963 -29.3584q9.00977 -8.00684 8.34277 -8.00684zM131.794 446.125l50.0566 33.3613l-28.6992 82.7373z" />
    <glyph glyph-name="registered" unicode="&#xae;" horiz-adv-x="678" 
d="M205 167q0 -1 4.5 4.5t10.5 15.5t11 22.5t5 26.5v221l-52 36l152 94l140 -156l-91 -79l55 -34q-1 -6 -2 -13q-1 -6 -1.5 -14.5t-0.5 -18.5q0 -13 1.5 -27.5t5 -28.5t10.5 -26.5t18 -20.5h-83q-10 7 -17 16q-6 8 -11 16.5t-5 19.5q0 10 -0.5 20t-0.5 18q-1 10 -1 19
l-43 35v-38q0 -16 0.5 -32t0.5 -26q0 -11 4 -20t9 -15q6 -8 14 -13h-66q-25 0 -46 -0.5t-21 -1.5zM352 434l-42 45v-89zM82 355q0 -52 20 -98.5t54.5 -81t80.5 -54.5t98 -20t98.5 20t81.5 54.5t55.5 81t20.5 98.5t-20.5 98.5t-55.5 81t-81.5 54.5t-98.5 20t-98 -20
t-80.5 -54.5t-54.5 -81t-20 -98.5zM27 355q0 64 23.5 119.5t64.5 96.5t96.5 64.5t119.5 23.5t119.5 -23.5t96.5 -64.5t64.5 -96.5t23.5 -119.5t-23.5 -119.5t-64.5 -96.5t-96.5 -64.5t-119.5 -23.5t-119.5 23.5t-96.5 64.5t-64.5 96.5t-23.5 119.5z" />
    <glyph glyph-name="trademark" unicode="&#x2122;" horiz-adv-x="604" 
d="M67 294q9 8 16 18q6 8 11 18.5t5 21.5v220h-5q-10 0 -28.5 -4.5t-28.5 -25.5v60q0 20 1 43h206v-103q-4 7 -12 12.5t-17 9.5t-18 6t-15 2h-7v-208q0 -17 5.5 -29.5t13.5 -21.5q9 -11 20 -19h-147zM532 614q0 6 3 11t8 10q5 4 12 9h-138q2 -1 4 -4q2 -2 3.5 -6t1.5 -10v-2
l-3.5 -24.5t-6.5 -36.5q-4 -22 -10 -47q-6 27 -10 50q-4 20 -7 36.5t-3 21.5q0 10 5 17q3 3 6 5h-134l8 -8q3 -4 6 -9.5t3 -13.5v-274q0 -10 -4.5 -18t-9.5 -14q-6 -7 -13 -13h113q-3 2 -6 6q-2 3 -4 8.5t-2 14.5t-0.5 39t-0.5 62v84l56 -207l53 213q1 -51 2 -92
q0 -18 0.5 -35t1 -31.5t0.5 -24.5v-13q0 -14 -6 -20q-3 -4 -6 -4h112q-10 6 -17 14q-7 7 -12 15.5t-5 17.5v273z" />
    <glyph glyph-name="copyright" unicode="&#xa9;" horiz-adv-x="833" 
d="M387 71q-15 14 -41.5 40.5t-80.5 53.5q-23 12 -44 20.5t-36.5 14.5t-24 10t-8.5 6q1 4 17 8t26 17q10 12 12 34.5t2 45.5v34q0 13 -0.5 31t-2.5 35t-7.5 31t-14.5 19q-8 5 -16.5 6.5t-16.5 1.5t-16 -2q-4 -1 -6 -1q28 24 57 44q25 17 54.5 32t56.5 17q6 1 12 1h11
q45 0 74.5 -15t42.5 -43q13 -31 13 -59q0 -19 -5 -36t-16 -28q-13 -14 -28.5 -23.5t-35.5 -9.5q-10 0 -22.5 3.5t-22.5 8.5q24 2 42 9t30 16.5t18 19.5t6 19q0 10 -3 22t-9.5 23t-16.5 19.5t-24 11.5q-15 3 -32 3q-26 0 -49.5 -10.5t-30.5 -40.5q-5 -20 -7 -56.5t-2 -73.5
q0 -35 2 -63.5t7 -36.5q8 -14 23.5 -28.5t36.5 -14.5q10 0 19 4q17 7 27.5 24t17.5 35q8 21 12 45v-224zM283 511q-1 18 -2 33.5t-3 27.5l-27 -4l3 53l27 -12q-1 2 -2 6q-2 8 -2 17q0 21 20 21q10 0 15.5 -6.5t5.5 -14.5q0 -7 -4 -15q-2 -4 -3 -7l31 15v-57l-24 5l-2 -56z
M303 183l-9 -242q-3 20 -5 38.5t-3.5 42.5t-2 58t-1.5 84l2 23zM381 573l48 26l-11 -42l-77 -83zM348 458l117 21l77 -13l-77 -19zM335 455l84 -90l9 -64l-48 41zM396 117q37 14 68.5 38t54 55.5t35 69.5t12.5 80q0 48 -16 90.5t-43.5 76t-66 56.5t-83.5 32q0 6 -1 13t-9 7
q-4 0 -10 -2t-12 -7v12q0 11 -8 18t-20 7q-14 0 -22 -10.5t-8 -22.5l4 -9q-5 3 -11 5.5t-9 2.5q-4 0 -5 -3t-1 -6v-7q-43 -10 -79.5 -33.5t-63 -57t-41.5 -75t-15 -87.5q0 -49 16.5 -92.5t46 -77.5t69.5 -57t87 -30q3 -1 11 -1l2 -40q-7 0 -17 2q-54 8 -100.5 34t-80.5 65.5
t-53.5 89.5t-19.5 107q0 62 23.5 116.5t64 95t95 64t116.5 23.5t116.5 -23.5t95 -64t64 -95t23.5 -116.5q0 -50 -15 -96t-42.5 -84.5t-65 -66.5t-82.5 -41zM374 66q-12 -2 -24.5 -3.5t-25.5 -1.5h-19v39l20 1l16 2z" />
    <glyph glyph-name="numbersign" unicode="#" horiz-adv-x="701" 
d="M74 227q-3 -3 -7 -5.5t-8 -2.5q-8 0 -15 7q-6 4 -6 15q0 9 6 15q6 7 15 7q8 0 15 -7h89v50h35l-21 -21v-26h417l88 -18l-88 -18h-417v-25l21 -22h-35v51h-89zM646 401q8 8 15 8q8 0 15 -7q6 -5 6 -15q0 -7 -6 -16q-6 -6 -15 -6q-8 0 -15 7h-89v-50h-36l22 21v26h-417
l-88 18l88 18h417v25l-22 22h36v-51h89zM244 112l21 -41l-4 -17l-19 25l20 -33l-2 -19l-23 23l21 -30l-3 -21l-34 39l-42 -26l4 22l27 22l-26 -15l3 18l28 24l-26 -17l3 21l33 29l67 381l-50 -44l81 171l19 -189l-31 58zM455 511l-20 41l2 17l21 -25l-22 33l3 19l24 -23
l-22 30l3 21l34 -39l43 26l-5 -22l-28 -22l28 15l-5 -18l-28 -24l27 17l-3 -21l-33 -29l-67 -381l50 44l-82 -171l-18 189l31 -58z" />
    <glyph glyph-name="florin" unicode="&#x192;" horiz-adv-x="441" 
d="M64 -80q14 0 28 1t25 5.5t18 14.5t7 27q0 7 -0.5 34t-1 65t-1 84.5t-0.5 94.5q-2 112 -3 249q-22 8 -39 15q-15 6 -27 10.5t-12 6.5l11 7.5t28.5 19.5t40 27.5t46.5 31.5q55 37 127 85l121 -163l-57 -42l-62 67l-48 -38v-122h112v-113l-22 24h-90v-343q0 -52 -23 -80.5
t-58 -41.5t-76.5 -15t-77.5 -2z" />
    <glyph glyph-name="dotlessi" unicode="&#x131;" horiz-adv-x="212" 
 />
    <glyph glyph-name="asciicircum" unicode="^" horiz-adv-x="466" 
d="M233 694q24 0 40.5 -5.5t28.5 -13.5t20.5 -17.5t16.5 -17.5q9 -9 18 -9q11 0 18 13t7 42v13q14 -36 14 -84q0 -14 -3 -32q0 -1 -0.5 -2t-0.5 -4v-18q-1 -5 -1 -16q0 -29 4.5 -60t4.5 -72q0 -20 -3.5 -45.5t-11.5 -49.5q16 7 26.5 24t17.5 34q8 20 12 43q2 -11 4 -25
q2 -12 3.5 -28t1.5 -36q0 -45 -12 -100.5t-50 -105.5q6 18 8 36t2 34q0 11 -0.5 19.5t-1.5 15.5q-1 8 -2 14q-13 -8 -25 -19q-11 -10 -23.5 -25.5t-24.5 -38.5t-22 -56t-18 -63q-9 -35 -16 -73q4 56 11 110q6 46 16 97t25 89q11 27 17 65.5t6 79.5q0 37 -5.5 72t-18.5 63
t-33 45t-50 17t-50 -17t-33 -45t-18.5 -63t-5.5 -72q0 -41 6 -79.5t17 -65.5q15 -38 25 -89t16 -97q7 -54 11 -110q-7 38 -16 73q-8 30 -18 63t-22 56t-25 38.5t-24 25.5q-12 11 -24 19q-1 -6 -2 -14q-1 -7 -1.5 -15.5t-0.5 -19.5q0 -16 2 -34t8 -36q-38 50 -50 105.5
t-12 100.5q0 20 1 36t3 28q2 14 5 25q4 -23 12 -43q7 -17 17 -34t27 -24q-8 24 -11.5 49.5t-3.5 45.5q0 41 4.5 72t4.5 60q0 11 -1 16v18q0 3 -0.5 4t-0.5 2q-3 18 -3 32q0 48 14 84v-13q0 -29 7 -42t18 -13q9 0 18 9q8 8 16.5 17.5t20.5 17.5t28.5 13.5t40.5 5.5zM182 420
q0 31 15 52.5t36 21.5t36 -21.5t15 -52.5t-15 -52.5t-36 -21.5t-36 21.5t-15 52.5z" />
    <glyph glyph-name="grave" unicode="`" horiz-adv-x="840" 
d="M58 0l74 252q29 3 52 12q20 8 36 20.5t16 34.5v5q-2 19 -12 29.5t-22.5 16t-25.5 7t-20 1.5h-7q1 4 2 10q1 5 1.5 11.5t0.5 14.5q0 12 -2.5 25.5t-8.5 24.5t-17 19t-29 10q-23 2 -39 3t-25 2q-11 1 -17 1l27 181h150l12 -25l12 25h454l11 -25l12 25h139q0 -1 -2.5 -19
t-16 -45t-42.5 -60.5t-81 -66.5v-87q-29 -4 -52 -15q-20 -9 -36 -25.5t-16 -43.5q0 -22 11 -34.5t26 -19t31.5 -8t27.5 -1.5h12l67 -255h-703zM59 665l-10 -115q45 0 80.5 -14.5t45.5 -37.5q2 16 3.5 43.5t3.5 54.5q1 32 2 66zM226 661l-31 -248h467q1 5 1 12.5v16.5
q0 26 -2 63.5t-4 72.5q-3 40 -6 83h-425zM694 584q38 13 62.5 27t38.5 27q17 14 25 29h-121zM126 42q15 45 28.5 86.5t20.5 88.5h37q-4 -22 -8.5 -42.5t-11 -41.5t-15 -43.5t-20.5 -47.5h-31zM667 42q-23 51 -34.5 91t-19.5 84h29q1 -15 4.5 -36.5t9.5 -45.5t13.5 -48
t15.5 -45h-18zM677 233h-532l-62 -210h653zM607 246q-14 11 -27.5 27t-13.5 41q0 17 9 38q-13 -11 -18 -22.5t-5 -22.5q0 -16 7 -30.5t15 -25.5q-11 5 -16 12q-13 12 -17 20t-4 30q0 12 4.5 21.5t9.5 17.5q6 9 14 16h-318q14 -7 24 -19.5t10 -25.5q0 -8 -3.5 -22.5
t-18.5 -29.5q-6 -6 -10 -8q7 9 12.5 20.5t5.5 25.5q0 11 -5 21.5t-17 21.5q4 -15 4 -30q0 -20 -8.5 -35.5t-22.5 -26.5q-5 -4 -10.5 -7.5t-11.5 -6.5h96q58 5 88 18t30 28q0 14 -28.5 31.5t-90.5 35.5h226q-6 -5 -10 -13q-4 -7 -6.5 -16.5t-2.5 -23.5q0 -13 5 -24t11.5 -19
t12 -12.5t6.5 -4.5h74zM696 521q0 -2 2 -2q5 0 21 12t33.5 27.5t31.5 30.5t14 21q-9 -1 -26 -11.5t-33.5 -25t-29 -29t-13.5 -23.5z" />
    <glyph glyph-name="glyph124" horiz-adv-x="0" 
 />
  </font>
</defs>
</svg>
